<svg id="logo" xmlns="http://www.w3.org/2000/svg" width="365.25" height="59.75" viewBox="0 0 365.25 59.75">
  <metadata><?xpacket begin="﻿" id="W5M0MpCehiHzreSzNTczkc9d"?>
<x:xmpmeta xmlns:x="adobe:ns:meta/" x:xmptk="Adobe XMP Core 5.6-c142 79.160924, 2017/07/13-01:06:39        ">
   <rdf:RDF xmlns:rdf="http://www.w3.org/1999/02/22-rdf-syntax-ns#">
      <rdf:Description rdf:about=""/>
   </rdf:RDF>
</x:xmpmeta>
                                                                                                    
                                                                                                    
                                                                                                    
                                                                                                    
                                                                                                    
                                                                                                    
                                                                                                    
                                                                                                    
                                                                                                    
                                                                                                    
                                                                                                    
                                                                                                    
                                                                                                    
                                                                                                    
                                                                                                    
                                                                                                    
                                                                                                    
                                                                                                    
                                                                                                    
                                                                                                    
                           
<?xpacket end="w"?></metadata>
<defs>
    <style>
      .cls-1 {
        fill: #ec3756;
      }

      .cls-1, .cls-2, .cls-3 {
        fill-rule: evenodd;
      }

      .cls-2 {
        fill: #363639;
      }

      .cls-3 {
        fill: #f4f4f9;
      }

      .cls-4 {
        fill: #fff;
      }
    </style>
  </defs>
  <path id="Insurance" class="cls-1" d="M569.144,92.5V75.46h-4.68V92.5h4.68Zm15.7-8.3a9.686,9.686,0,0,0-.12-1.44,4.283,4.283,0,0,0-.516-1.488A3.272,3.272,0,0,0,583.06,80.1a3.878,3.878,0,0,0-2.052-.468,7,7,0,0,0-2.868.54,4.25,4.25,0,0,0-1.884,1.572V79.876h-4.1V92.5h4.56V85.42a3,3,0,0,1,.96-1.3,2.034,2.034,0,0,1,1.224-.5,1.336,1.336,0,0,1,.972.42,1.86,1.86,0,0,1,.42,1.356v7.1h4.56V84.2Zm9.708,8.256a4.748,4.748,0,0,0,1.656-.84,3.694,3.694,0,0,0,1.044-1.32,4.081,4.081,0,0,0,.36-1.752,3.568,3.568,0,0,0-.24-1.356,2.7,2.7,0,0,0-.8-1.056,6.03,6.03,0,0,0-1.5-.864,17.311,17.311,0,0,0-2.3-.756,6.613,6.613,0,0,1-1.512-.516,0.673,0.673,0,0,1-.384-0.588,0.53,0.53,0,0,1,.264-0.492,1.306,1.306,0,0,1,.672-0.156,3.941,3.941,0,0,1,1.488.324,12.389,12.389,0,0,1,1.968,1.092l1.728-2.736a6.758,6.758,0,0,0-2.532-1.464,9.608,9.608,0,0,0-2.652-.36,6.383,6.383,0,0,0-2.076.324,4.8,4.8,0,0,0-1.632.924,4.306,4.306,0,0,0-1.068,1.416,4.119,4.119,0,0,0-.384,1.776,2.994,2.994,0,0,0,.24,1.248,2.56,2.56,0,0,0,.8.96,6.49,6.49,0,0,0,1.464.8,21.231,21.231,0,0,0,2.244.756,6.266,6.266,0,0,1,1.452.552,0.686,0.686,0,0,1,.372.576q0,0.6-.96.6a5.492,5.492,0,0,1-2-.432,12,12,0,0,1-2.268-1.224l-1.56,2.736A7.345,7.345,0,0,0,589.12,92.2a9.976,9.976,0,0,0,3.24.54A7.727,7.727,0,0,0,594.556,92.452Zm11.22-.228a5.135,5.135,0,0,0,2.112-1.692l0.1,0.456q0.36,1.752,2.688,1.752a10.048,10.048,0,0,0,1.92-.24V88.66a0.917,0.917,0,0,1-.672-0.3,1.546,1.546,0,0,1-.192-0.9V79.876h-4.56V87.6a2.808,2.808,0,0,1-1.1,1.056,2.7,2.7,0,0,1-1.08.24,1.245,1.245,0,0,1-1.02-.456,2,2,0,0,1-.372-1.3V79.876h-4.56v8.3a5.048,5.048,0,0,0,1.008,3.4,3.662,3.662,0,0,0,2.928,1.164A7.177,7.177,0,0,0,605.776,92.224ZM622.72,79.66a4.045,4.045,0,0,0-.576-0.024A3.721,3.721,0,0,0,620,80.32a5.329,5.329,0,0,0-1.668,1.956v-2.4h-4.176V92.5h4.56V85.012a2.925,2.925,0,0,1,1.608-.96,9.311,9.311,0,0,1,2.4-.288v-4.1Zm7.5,12.516a5.806,5.806,0,0,0,1.944-1.644l0.1,0.456a2.07,2.07,0,0,0,.828,1.308,3.242,3.242,0,0,0,1.86.444,7.364,7.364,0,0,0,.876-0.06q0.492-.06,1.044-0.18V88.66a0.917,0.917,0,0,1-.672-0.3,1.546,1.546,0,0,1-.192-0.9V85.012a4.921,4.921,0,0,0-1.632-4.032,7.146,7.146,0,0,0-4.656-1.344,10.274,10.274,0,0,0-5.688,1.608l1.32,2.832a9.826,9.826,0,0,1,1.92-1.02,5.55,5.55,0,0,1,1.992-.348,2.589,2.589,0,0,1,1.668.432,1.625,1.625,0,0,1,.516,1.32v0.384a5.917,5.917,0,0,0-2.544-.48,7.329,7.329,0,0,0-2.2.312,5.208,5.208,0,0,0-1.716.888,4.2,4.2,0,0,0-1.128,1.368,3.769,3.769,0,0,0-.408,1.752,3.86,3.86,0,0,0,.336,1.608,3.9,3.9,0,0,0,.924,1.284,4.337,4.337,0,0,0,1.4.852,4.87,4.87,0,0,0,1.752.312A5.1,5.1,0,0,0,630.224,92.176Zm-2.052-3.036a1.057,1.057,0,0,1-.42-0.864,1.237,1.237,0,0,1,.552-1.032,2.28,2.28,0,0,1,1.392-.408,4.465,4.465,0,0,1,.864.1,6.513,6.513,0,0,1,.888.24v0.936a0.781,0.781,0,0,1-.168.468,1.958,1.958,0,0,1-.432.42,3.065,3.065,0,0,1-.768.348,2.864,2.864,0,0,1-.84.132A1.655,1.655,0,0,1,628.172,89.14ZM650.848,84.2a9.686,9.686,0,0,0-.12-1.44,4.283,4.283,0,0,0-.516-1.488A3.272,3.272,0,0,0,649.06,80.1a3.878,3.878,0,0,0-2.052-.468,7,7,0,0,0-2.868.54,4.25,4.25,0,0,0-1.884,1.572V79.876h-4.1V92.5h4.56V85.42a3,3,0,0,1,.96-1.3,2.034,2.034,0,0,1,1.224-.5,1.336,1.336,0,0,1,.972.42,1.86,1.86,0,0,1,.42,1.356v7.1h4.56V84.2Zm2.064,4.476a6.089,6.089,0,0,0,1.332,2.088,6.442,6.442,0,0,0,2.172,1.44,7.684,7.684,0,0,0,2.976.54,7.183,7.183,0,0,0,3.852-.96,6.176,6.176,0,0,0,2.316-2.472l-4.44-1.344a2.026,2.026,0,0,1-1.752.936,2.065,2.065,0,0,1-1.584-.708,3.423,3.423,0,0,1,0-4.008,2.066,2.066,0,0,1,1.584-.708,2.026,2.026,0,0,1,1.752.936l4.44-1.344a6.178,6.178,0,0,0-2.316-2.472,7.186,7.186,0,0,0-3.852-.96,7.684,7.684,0,0,0-2.976.54,6.442,6.442,0,0,0-2.172,1.44,6.089,6.089,0,0,0-1.332,2.088A6.994,6.994,0,0,0,652.912,88.672Zm24.38,3.108a6.087,6.087,0,0,0,2.364-2.472l-3.864-1.1a1.688,1.688,0,0,1-.876.936,3.05,3.05,0,0,1-1.4.336,2.6,2.6,0,0,1-1.464-.444,1.774,1.774,0,0,1-.744-1.452h8.856q0.048-.288.084-0.66t0.036-.732a7.037,7.037,0,0,0-.444-2.484,5.943,5.943,0,0,0-1.32-2.088,6.442,6.442,0,0,0-2.172-1.44,8.5,8.5,0,0,0-5.964,0,6.379,6.379,0,0,0-2.16,1.452,6,6,0,0,0-1.32,2.136,7.542,7.542,0,0,0-.444,2.592,6.525,6.525,0,0,0,.456,2.424,6.043,6.043,0,0,0,1.332,2.04,6.248,6.248,0,0,0,2.172,1.4,7.932,7.932,0,0,0,2.952.516A7.487,7.487,0,0,0,677.292,91.78Zm-6.084-6.936a2.344,2.344,0,0,1,.672-1.44,2.163,2.163,0,0,1,2.832,0,2.344,2.344,0,0,1,.672,1.44h-4.176Z" transform="translate(-315.031 -53.125)"/>
  <path id="Cheap_Huricane" data-name="Cheap Huricane" class="cls-2" d="M382.6,87.064a9.3,9.3,0,0,0,1.644,2.808,8.429,8.429,0,0,0,2.52,2,6.813,6.813,0,0,0,3.216.768,7.982,7.982,0,0,0,2-.264,8.249,8.249,0,0,0,1.932-.768,7.568,7.568,0,0,0,1.656-1.236,5.208,5.208,0,0,0,1.152-1.692l-1.392-.72a5.084,5.084,0,0,1-1.008,1.428,6.151,6.151,0,0,1-1.308.984,5.688,5.688,0,0,1-1.464.576,6.361,6.361,0,0,1-1.476.18,5.533,5.533,0,0,1-2.532-.588,6.461,6.461,0,0,1-2.016-1.584,7.689,7.689,0,0,1-1.344-2.292,7.576,7.576,0,0,1-.492-2.712A8.25,8.25,0,0,1,384.1,81.4a7.123,7.123,0,0,1,1.212-2.268,6.247,6.247,0,0,1,1.98-1.632A5.7,5.7,0,0,1,390,76.876a6.681,6.681,0,0,1,1.416.156,5.332,5.332,0,0,1,1.392.516,5.538,5.538,0,0,1,1.26.936,5.044,5.044,0,0,1,1,1.416l1.32-.816A6.279,6.279,0,0,0,394,76.4a7.11,7.11,0,0,0-3.9-1.032,7.57,7.57,0,0,0-3.432.756,8.068,8.068,0,0,0-2.544,1.956,8.487,8.487,0,0,0-1.572,2.724A8.982,8.982,0,0,0,382.6,87.064Zm26.716-1.884a10.376,10.376,0,0,0-.216-2.2,4.832,4.832,0,0,0-.7-1.7,3.378,3.378,0,0,0-1.224-1.1,3.842,3.842,0,0,0-1.824-.4,5.334,5.334,0,0,0-2.856.816,5.67,5.67,0,0,0-2.064,2.232V74.98H398.8V92.5h1.632V84.844a4.775,4.775,0,0,1,.66-1.416,5.2,5.2,0,0,1,1.044-1.128,5.115,5.115,0,0,1,1.284-.756,3.665,3.665,0,0,1,1.38-.276,2.447,2.447,0,0,1,2.148,1.056,5.637,5.637,0,0,1,.732,3.192V92.5h1.632V85.18Zm10.64,7.332a5.987,5.987,0,0,0,1.536-.648,5.687,5.687,0,0,0,1.224-.984,4.153,4.153,0,0,0,.816-1.26l-1.416-.384a3.038,3.038,0,0,1-.624.924,4.1,4.1,0,0,1-.912.708,4.842,4.842,0,0,1-1.1.456,4.429,4.429,0,0,1-1.2.168,4.272,4.272,0,0,1-1.716-.348,4.56,4.56,0,0,1-1.428-.972,5.11,5.11,0,0,1-1.02-1.476,5.262,5.262,0,0,1-.468-1.86h10.7a0.964,0.964,0,0,0,.024-0.264V86.188A6.592,6.592,0,0,0,422.64,81.7a5.963,5.963,0,0,0-4.464-1.92,6.037,6.037,0,0,0-2.5.516,6.157,6.157,0,0,0-1.98,1.392,6.434,6.434,0,0,0-1.3,2.04,6.6,6.6,0,0,0-.468,2.484,6.75,6.75,0,0,0,.468,2.52,6.574,6.574,0,0,0,1.308,2.076,6.145,6.145,0,0,0,1.98,1.416,6.013,6.013,0,0,0,2.508.516A6.663,6.663,0,0,0,419.952,92.512Zm-6.336-6.924a5.454,5.454,0,0,1,.444-1.824,4.6,4.6,0,0,1,.984-1.44,4.432,4.432,0,0,1,1.428-.936,4.5,4.5,0,0,1,1.728-.336,4.407,4.407,0,0,1,1.716.336,4.467,4.467,0,0,1,1.416.936,5,5,0,0,1,1.008,1.428,5.05,5.05,0,0,1,.468,1.836h-9.192Zm19.148,6.552a5.667,5.667,0,0,0,2.172-1.728l0.048,0.984a1.173,1.173,0,0,0,.372.864,1.4,1.4,0,0,0,.972.312,3.891,3.891,0,0,0,.624-0.072V91.06a0.564,0.564,0,0,1-.6-0.672v-5.64a4.88,4.88,0,0,0-1.344-3.648,5.048,5.048,0,0,0-3.7-1.32,8.445,8.445,0,0,0-4.7,1.632l0.576,1.08a9.5,9.5,0,0,1,2.04-1.1A5.513,5.513,0,0,1,431.192,81a3.429,3.429,0,0,1,2.592.972,3.629,3.629,0,0,1,.936,2.628v1.128a8.451,8.451,0,0,0-1.752-.48,11.556,11.556,0,0,0-1.944-.168,7.633,7.633,0,0,0-2.112.276,5.29,5.29,0,0,0-1.656.78,3.661,3.661,0,0,0-1.08,1.2,3.08,3.08,0,0,0-.384,1.512,3.729,3.729,0,0,0,1.188,2.76,4.146,4.146,0,0,0,1.32.828,4.419,4.419,0,0,0,1.644.3A6.686,6.686,0,0,0,432.764,92.14Zm-3.612-.864a2.919,2.919,0,0,1-.948-0.588,2.736,2.736,0,0,1-.624-0.876,2.59,2.59,0,0,1-.228-1.08,2.189,2.189,0,0,1,1.08-1.9,4.974,4.974,0,0,1,2.808-.72,9.488,9.488,0,0,1,1.788.168,10.041,10.041,0,0,1,1.692.48V88.8a1.2,1.2,0,0,1-.108.468,1.5,1.5,0,0,1-.324.468,3.821,3.821,0,0,1-1.62,1.272,5.639,5.639,0,0,1-2.34.48A3.2,3.2,0,0,1,429.152,91.276Zm19.324,0.948a5.6,5.6,0,0,0,1.8-1.4,6.364,6.364,0,0,0,1.164-2.064,7.56,7.56,0,0,0,.408-2.5,6.809,6.809,0,0,0-.444-2.424,6.687,6.687,0,0,0-1.236-2.076,6.108,6.108,0,0,0-1.872-1.44,5.238,5.238,0,0,0-2.376-.54,5.1,5.1,0,0,0-2.664.732,6.064,6.064,0,0,0-1.992,1.908V80H439.8V97.612h1.632v-7.7a6.394,6.394,0,0,0,1.956,2.028,4.939,4.939,0,0,0,2.8.8A5.1,5.1,0,0,0,448.476,92.224Zm-4.092-1.164a4.818,4.818,0,0,1-1.212-.66,5.159,5.159,0,0,1-1.008-1,5.736,5.736,0,0,1-.732-1.248v-3.84a2.651,2.651,0,0,1,.516-1.188,4.536,4.536,0,0,1,1.008-.984,5.386,5.386,0,0,1,1.272-.672,3.781,3.781,0,0,1,1.308-.252,4.2,4.2,0,0,1,1.836.408,4.677,4.677,0,0,1,1.476,1.1,5.3,5.3,0,0,1,.984,1.608,5.183,5.183,0,0,1,.36,1.92,5.638,5.638,0,0,1-.312,1.86,5.113,5.113,0,0,1-.9,1.608,4.565,4.565,0,0,1-1.416,1.14,3.908,3.908,0,0,1-1.836.432A3.837,3.837,0,0,1,444.384,91.06Zm28.536-15.6v7.584h-10.1V75.46h-1.68V92.5h1.68V84.532h10.1V92.5h1.656V75.46H472.92ZM485.7,91.936a5.819,5.819,0,0,0,2.22-2.268v1.44a1.448,1.448,0,0,0,.36,1.032,1.3,1.3,0,0,0,.936.408h0.252a2.987,2.987,0,0,0,.468-0.048V91.06a0.556,0.556,0,0,1-.576-0.672V80h-1.632v7.872a5.441,5.441,0,0,1-.756,1.416,5.623,5.623,0,0,1-1.056,1.08,4.442,4.442,0,0,1-1.284.7,4.313,4.313,0,0,1-1.416.24q-2.9,0-2.9-4.248V80H478.68V87.34a6.8,6.8,0,0,0,1,4.044,3.519,3.519,0,0,0,3.036,1.356A5.916,5.916,0,0,0,485.7,91.936Zm13.34-11.988a1.671,1.671,0,0,0-.312-0.024,4.34,4.34,0,0,0-2.52.816A5.688,5.688,0,0,0,494.336,83V80H492.8V92.5h1.632V84.724a4.6,4.6,0,0,1,1.728-2.376,5.136,5.136,0,0,1,2.88-.912V79.948ZM502.432,92.5V80H500.8V92.5h1.632Zm0-15.12v-2.4H500.8v2.4h1.632ZM505.4,88.732a6.574,6.574,0,0,0,1.308,2.076,6.073,6.073,0,0,0,4.512,1.932,6.438,6.438,0,0,0,1.716-.228,5.823,5.823,0,0,0,1.512-.648,5.29,5.29,0,0,0,1.188-.984,4.087,4.087,0,0,0,.768-1.236l-1.608-.48a2.221,2.221,0,0,1-.5.816,3.922,3.922,0,0,1-.864.684,4.573,4.573,0,0,1-1.092.468,4.3,4.3,0,0,1-1.188.168,4.037,4.037,0,0,1-1.764-.4,4.685,4.685,0,0,1-1.452-1.08,5.082,5.082,0,0,1-.984-1.62,5.782,5.782,0,0,1-.012-3.984,4.8,4.8,0,0,1,.96-1.572,4.563,4.563,0,0,1,1.44-1.044,4.354,4.354,0,0,1,3.888.156,3.8,3.8,0,0,1,1.476,1.5l1.584-.5a5.165,5.165,0,0,0-1.992-2.172,5.835,5.835,0,0,0-3.1-.8,6.279,6.279,0,0,0-2.544.5,6,6,0,0,0-1.98,1.38,6.239,6.239,0,0,0-1.284,2.052,6.845,6.845,0,0,0-.456,2.5A6.75,6.75,0,0,0,505.4,88.732Zm19.36,3.408a5.667,5.667,0,0,0,2.172-1.728l0.048,0.984a1.173,1.173,0,0,0,.372.864,1.4,1.4,0,0,0,.972.312,3.891,3.891,0,0,0,.624-0.072V91.06a0.564,0.564,0,0,1-.6-0.672v-5.64a4.88,4.88,0,0,0-1.344-3.648,5.048,5.048,0,0,0-3.7-1.32,8.445,8.445,0,0,0-4.7,1.632l0.576,1.08a9.5,9.5,0,0,1,2.04-1.1A5.513,5.513,0,0,1,523.192,81a3.429,3.429,0,0,1,2.592.972,3.629,3.629,0,0,1,.936,2.628v1.128a8.451,8.451,0,0,0-1.752-.48,11.556,11.556,0,0,0-1.944-.168,7.633,7.633,0,0,0-2.112.276,5.29,5.29,0,0,0-1.656.78,3.661,3.661,0,0,0-1.08,1.2,3.08,3.08,0,0,0-.384,1.512,3.729,3.729,0,0,0,1.188,2.76,4.146,4.146,0,0,0,1.32.828,4.419,4.419,0,0,0,1.644.3A6.686,6.686,0,0,0,524.764,92.14Zm-3.612-.864a2.919,2.919,0,0,1-.948-0.588,2.736,2.736,0,0,1-.624-0.876,2.59,2.59,0,0,1-.228-1.08,2.189,2.189,0,0,1,1.08-1.9,4.974,4.974,0,0,1,2.808-.72,9.488,9.488,0,0,1,1.788.168,10.041,10.041,0,0,1,1.692.48V88.8a1.2,1.2,0,0,1-.108.468,1.5,1.5,0,0,1-.324.468,3.821,3.821,0,0,1-1.62,1.272,5.639,5.639,0,0,1-2.34.48A3.2,3.2,0,0,1,521.152,91.276Zm21.16-6.1a11.963,11.963,0,0,0-.192-2.232,4.977,4.977,0,0,0-.624-1.7,2.991,2.991,0,0,0-1.152-1.08,3.684,3.684,0,0,0-1.752-.384,6.022,6.022,0,0,0-3.108.84,5.876,5.876,0,0,0-2.2,2.208V80H531.8V92.5h1.632V84.844a4.472,4.472,0,0,1,.7-1.428,5.7,5.7,0,0,1,1.092-1.14,4.865,4.865,0,0,1,1.332-.744,4.161,4.161,0,0,1,1.44-.264,2.255,2.255,0,0,1,2.028,1.008,6.092,6.092,0,0,1,.66,3.24V92.5h1.632V85.18Zm10.64,7.332a5.987,5.987,0,0,0,1.536-.648,5.687,5.687,0,0,0,1.224-.984,4.153,4.153,0,0,0,.816-1.26l-1.416-.384a3.038,3.038,0,0,1-.624.924,4.1,4.1,0,0,1-.912.708,4.842,4.842,0,0,1-1.1.456,4.429,4.429,0,0,1-1.2.168,4.272,4.272,0,0,1-1.716-.348,4.56,4.56,0,0,1-1.428-.972,5.11,5.11,0,0,1-1.02-1.476,5.262,5.262,0,0,1-.468-1.86h10.7a0.964,0.964,0,0,0,.024-0.264V86.188A6.592,6.592,0,0,0,555.64,81.7a5.963,5.963,0,0,0-4.464-1.92,6.037,6.037,0,0,0-2.5.516,6.157,6.157,0,0,0-1.98,1.392,6.434,6.434,0,0,0-1.3,2.04,6.6,6.6,0,0,0-.468,2.484,6.75,6.75,0,0,0,.468,2.52,6.574,6.574,0,0,0,1.308,2.076,6.145,6.145,0,0,0,1.98,1.416,6.013,6.013,0,0,0,2.508.516A6.663,6.663,0,0,0,552.952,92.512Zm-6.336-6.924a5.454,5.454,0,0,1,.444-1.824,4.6,4.6,0,0,1,.984-1.44,4.432,4.432,0,0,1,1.428-.936,4.5,4.5,0,0,1,1.728-.336,4.407,4.407,0,0,1,1.716.336,4.467,4.467,0,0,1,1.416.936,5,5,0,0,1,1.008,1.428,5.05,5.05,0,0,1,.468,1.836h-9.192Z" transform="translate(-315.031 -53.125)"/>
  <g id="shape">
    <path id="Elipsa_1_kopia_3" data-name="Elipsa 1 kopia 3" class="cls-3" d="M354.6,69.541a22.52,22.52,0,0,1,4.269,5.019c8.733,12.447,4.864,26.811-8.293,38.312a45.693,45.693,0,0,0,2.739-13.642c-7.923,4.966-19.227,4.349-27.4-1.606a0.342,0.342,0,0,1-.093.064c-0.318-.281-0.626-0.564-0.93-0.849q-0.393-.319-0.774-0.656a22.092,22.092,0,0,1-5.093-6.478C311.8,77.672,315.9,64.092,328.45,53.12a45.683,45.683,0,0,0-2.716,13.174c8.014-4.813,19.319-4.047,27.4,2.052A0.194,0.194,0,0,1,353.2,68.3c0.27,0.238.533,0.478,0.792,0.718C354.2,69.192,354.4,69.364,354.6,69.541ZM333.77,77.926c2.862-2.5,7.686-2.319,10.774.407s3.273,6.964.411,9.465-7.686,2.319-10.774-.407S330.908,80.428,333.77,77.926Z" transform="translate(-315.031 -53.125)"/>
    <circle id="Elipsa_3" data-name="Elipsa 3" class="cls-4" cx="24.469" cy="30.375" r="22.375"/>
    <path id="Elipsa_1_kopia_2" data-name="Elipsa 1 kopia 2" class="cls-1" d="M323.471,74.656a18.054,18.054,0,0,1,3.514-4.359c9.182-9.359,23.286-9.234,37.108-1.254a50.626,50.626,0,0,0-13.16.614,18.373,18.373,0,0,1,5.422,21.787,0.324,0.324,0,0,1,.082.059c-0.177.306-.359,0.6-0.542,0.9-0.129.248-.263,0.495-0.4,0.739a18.025,18.025,0,0,1-4.641,5.3c-9.181,8.1-22.625,7.636-35.812.023a50.6,50.6,0,0,0,12.726-.538,18.363,18.363,0,0,1-5.016-21.881A0.217,0.217,0,0,1,322.692,76q0.225-.39.458-0.766C323.254,75.043,323.359,74.849,323.471,74.656Zm12.9,14.623a6.212,6.212,0,1,1,8.549-2.237A6.249,6.249,0,0,1,336.375,89.278Z" transform="translate(-315.031 -53.125)"/>
  </g>
</svg>
