<svg id="palm_reverse" data-name="palm reverse" xmlns="http://www.w3.org/2000/svg" width="54" height="78.969" viewBox="0 0 54 78.969">
  <metadata><?xpacket begin="﻿" id="W5M0MpCehiHzreSzNTczkc9d"?>
<x:xmpmeta xmlns:x="adobe:ns:meta/" x:xmptk="Adobe XMP Core 5.6-c142 79.160924, 2017/07/13-01:06:39        ">
   <rdf:RDF xmlns:rdf="http://www.w3.org/1999/02/22-rdf-syntax-ns#">
      <rdf:Description rdf:about=""/>
   </rdf:RDF>
</x:xmpmeta>
                                                                                                    
                                                                                                    
                                                                                                    
                                                                                                    
                                                                                                    
                                                                                                    
                                                                                                    
                                                                                                    
                                                                                                    
                                                                                                    
                                                                                                    
                                                                                                    
                                                                                                    
                                                                                                    
                                                                                                    
                                                                                                    
                                                                                                    
                                                                                                    
                                                                                                    
                                                                                                    
                           
<?xpacket end="w"?></metadata>
<defs>
    <style>
      .cls-1 {
        fill: #202142;
      }

      .cls-1, .cls-2, .cls-3 {
        fill-rule: evenodd;
      }

      .cls-2 {
        fill: #8b735b;
      }

      .cls-3 {
        fill: #53803d;
      }
    </style>
  </defs>
  <path id="Kształt_3" data-name="Kształt 3" class="cls-1" d="M1045.95,379.7c0,4.029-8.64,7.3-19.29,7.3s-19.29-3.266-19.29-7.3,8.63-7.3,19.29-7.3S1045.95,375.675,1045.95,379.7Z" transform="translate(-995 -308.031)"/>
  <path id="Kształt_3_kopia" data-name="Kształt 3 kopia" class="cls-2" d="M1023.2,332.965s12.78,17.489,6,39.565a3.413,3.413,0,0,0,1.95,4.15h0a3.372,3.372,0,0,0,4.62-2.656c1.14-8.017,1.89-26.019-10.34-41.663Z" transform="translate(-995 -308.031)"/>
  <path id="Kształt_3_kopia_2" data-name="Kształt 3 kopia 2" class="cls-3" d="M1041.59,317.092c-9.01-2.329-16.47,7.683-16.47,7.683,1.15-9.856,10.39-11.8,10.39-11.8l-1-1.707,2,1.242c2.46-.233,6.08,1.319,6.08,1.319a9.173,9.173,0,0,0-7.69-5.753,11.558,11.558,0,0,0-8.7,2.858c-6.12,5.249-4.78,13.45-4.78,13.45a17.378,17.378,0,0,0-8.69-5.719,13.963,13.963,0,0,0-17.549,11,10.68,10.68,0,0,0-.177,1.705,14.342,14.342,0,0,1,7.6-5.329l1.33-2.691v2.225a21.492,21.492,0,0,1,6.93-.724l3.38-2.173-1.38,2.173a8.111,8.111,0,0,1,6.41,2.871c-4-2.095-10.62-.465-10.62-0.465a13,13,0,0,0-9.158,7.683c-3.232,8.77,1.408,13.66,1.408,13.66a18.154,18.154,0,0,1,1.02-6.093l0.38-4.812,0.3,2.678a11.937,11.937,0,0,1,5.43-6.209c0.21-1.035,1.13-3.829,1.13-3.829l0.11,3.26c7.02-3.26,11-1.914,11-1.914a17.994,17.994,0,0,0-7.76,4.262,14.976,14.976,0,0,0-4.9,12.163,8.46,8.46,0,0,0,.1.867,14.289,14.289,0,0,0,2.71,6.684,10.37,10.37,0,0,0,6.22,4.084,6.734,6.734,0,0,0,2.86,0,17.273,17.273,0,0,1-2.05-1.632c-4.44-4.548-3.64-7.957-3.64-7.957,0.38,1.242,2.54,1.94,2.54,1.94-2.31-3.647-2.01-11.486-2.01-11.486l1.34,2.044a10.911,10.911,0,0,1,7.08-9.417l2.67-.725c11.14-1.981,12.96,4.994,12.96,4.994l1.77-1.514-0.96,2.212c1.96,1.125,2.39,5.394,2.39,5.394a10.174,10.174,0,0,0,1.73-1.281,7.189,7.189,0,0,1-1.04,2.406,12.213,12.213,0,0,1-.16,4.657c9.85-8.848.7-17.695,0.7-17.695-6.62-6.753-16.55-2.174-16.55-2.174a14.556,14.556,0,0,1,9.77-5.51l1.24-2.406,0.38,2.173c4.16,0,6,2.1,6,2.1l1.39-2.484,0.08,3.277c1.53,2.19,2.23,6.813,2.23,6.813l0.92-2.1C1051.74,319.187,1041.59,317.092,1041.59,317.092Z" transform="translate(-995 -308.031)"/>
</svg>
