<svg id="palm" xmlns="http://www.w3.org/2000/svg" width="71" height="104.031" viewBox="0 0 71 104.031">
  <metadata><?xpacket begin="﻿" id="W5M0MpCehiHzreSzNTczkc9d"?>
<x:xmpmeta xmlns:x="adobe:ns:meta/" x:xmptk="Adobe XMP Core 5.6-c142 79.160924, 2017/07/13-01:06:39        ">
   <rdf:RDF xmlns:rdf="http://www.w3.org/1999/02/22-rdf-syntax-ns#">
      <rdf:Description rdf:about=""/>
   </rdf:RDF>
</x:xmpmeta>
                                                                                                    
                                                                                                    
                                                                                                    
                                                                                                    
                                                                                                    
                                                                                                    
                                                                                                    
                                                                                                    
                                                                                                    
                                                                                                    
                                                                                                    
                                                                                                    
                                                                                                    
                                                                                                    
                                                                                                    
                                                                                                    
                                                                                                    
                                                                                                    
                                                                                                    
                                                                                                    
                           
<?xpacket end="w"?></metadata>
<defs>
    <style>
      .cls-1 {
        fill: #202142;
      }

      .cls-1, .cls-2, .cls-3 {
        fill-rule: evenodd;
      }

      .cls-2 {
        fill: #8b735b;
      }

      .cls-3 {
        fill: #53803d;
      }
    </style>
  </defs>
  <path id="Kształt_3" data-name="Kształt 3" class="cls-1" d="M1399.02,613.392c0,5.306,11.35,9.607,25.36,9.607s25.36-4.3,25.36-9.607-11.36-9.607-25.36-9.607S1399.02,608.087,1399.02,613.392Z" transform="translate(-1395 -518.969)"/>
  <path id="Kształt_3_kopia" data-name="Kształt 3 kopia" class="cls-2" d="M1428.92,551.844s-16.8,23.031-7.89,52.1a4.5,4.5,0,0,1-2.56,5.466h0a4.427,4.427,0,0,1-6.07-3.5c-1.5-10.557-2.5-34.264,13.6-54.864Z" transform="translate(-1395 -518.969)"/>
  <path id="Kształt_3_kopia_2" data-name="Kształt 3 kopia 2" class="cls-3" d="M1404.75,530.941c11.84-3.066,21.65,10.118,21.65,10.118-1.52-12.979-13.66-15.535-13.66-15.535l1.32-2.248-2.63,1.635c-3.24-.306-8,1.738-8,1.738,2.48-5.468,6.61-7.205,10.11-7.576a15.2,15.2,0,0,1,11.44,3.763c8.05,6.912,6.28,17.712,6.28,17.712a22.866,22.866,0,0,1,11.43-7.531,18.353,18.353,0,0,1,23.07,14.484,14.468,14.468,0,0,1,.24,2.245,18.859,18.859,0,0,0-9.99-7.017l-1.75-3.544v2.93a28.258,28.258,0,0,0-9.11-.954l-4.45-2.861,1.82,2.861a10.667,10.667,0,0,0-8.43,3.782c5.26-2.759,13.96-.613,13.96-0.613,9.51,2.453,12.04,10.118,12.04,10.118,4.25,11.549-1.85,17.987-1.85,17.987a23.97,23.97,0,0,0-1.33-8.023l-0.51-6.336-0.39,3.526a15.686,15.686,0,0,0-7.15-8.176c-0.27-1.363-1.48-5.042-1.48-5.042l-0.14,4.292c-9.24-4.292-14.47-2.521-14.47-2.521a23.679,23.679,0,0,1,10.21,5.613,19.727,19.727,0,0,1,6.44,16.017c-0.03.382-.07,0.763-0.13,1.142a18.923,18.923,0,0,1-3.56,8.8,13.631,13.631,0,0,1-8.18,5.377,8.855,8.855,0,0,1-3.76,0,23.28,23.28,0,0,0,2.69-2.149c5.84-5.988,4.79-10.478,4.79-10.478-0.5,1.636-3.33,2.555-3.33,2.555,3.03-4.8,2.63-15.125,2.63-15.125l-1.76,2.691a14.376,14.376,0,0,0-9.31-12.4l-3.5-.954c-14.65-2.608-17.05,6.575-17.05,6.575l-2.33-1.993,1.26,2.913c-2.58,1.482-3.13,7.1-3.13,7.1a13.1,13.1,0,0,1-2.28-1.686,9.628,9.628,0,0,0,1.37,3.168,16.088,16.088,0,0,0,.2,6.132c-12.95-11.651-.91-23.3-0.91-23.3,8.7-8.891,21.75-2.861,21.75-2.861-4.85-6.644-12.85-7.257-12.85-7.257l-1.62-3.168-0.5,2.862c-5.47,0-7.89,2.759-7.89,2.759l-1.82-3.27-0.11,4.315c-2.02,2.884-2.93,8.971-2.93,8.971l-1.21-2.76C1391.39,533.7,1404.75,530.941,1404.75,530.941Z" transform="translate(-1395 -518.969)"/>
</svg>
