<svg id="Layer_1" data-name="Layer 1" xmlns="http://www.w3.org/2000/svg" viewBox="0 0 461.48 772.55"><defs><style>.cls-1{fill:#f9bdd1;}.cls-2{fill:#984848;}.cls-3{fill:#fcaabf;}.cls-4,.cls-43{fill:none;}.cls-4{stroke:#f9bdd1;stroke-miterlimit:10;stroke-width:3px;}.cls-5{fill:#e3a6bb;}.cls-6{fill:#e197b0;}.cls-7{fill:#fdaabe;}.cls-8{fill:#a24e4f;}.cls-9{fill:#813837;}.cls-10{fill:#fefefe;}.cls-11{fill:#a34f50;}.cls-12{fill:#fcaabe;}.cls-13{fill:#fb82ae;}.cls-14{fill:#ee84a2;}.cls-15{fill:#fe6081;}.cls-16{fill:#ef84a2;}.cls-17{fill:#ec3756;}.cls-18{fill:#460101;}.cls-19{fill:#7a0101;}.cls-20{fill:#fbacc0;}.cls-21{fill:#e03156;}.cls-22{fill:#fbdce6;}.cls-23{fill:#faaabf;}.cls-24{fill:#fdaabf;}.cls-25{fill:#fca9be;}.cls-26{fill:#fd6081;}.cls-27{fill:#ed84a2;}.cls-28{fill:#e9589a;}.cls-29{fill:#470101;}.cls-30{fill:#6d0507;}.cls-31{fill:#6d0608;}.cls-32{fill:#fdabbe;}.cls-33{fill:#ed85a3;}.cls-34{fill:#813636;}.cls-35{fill:#813737;}.cls-36{fill:#a24f50;}.cls-37{fill:#f9bace;}.cls-38{fill:#ee85a3;}.cls-39{fill:#823939;}.cls-40{fill:#aa2a61;}.cls-41{fill:#363871;}.cls-42{fill:#362854;}.cls-44{fill:#ec2426;}</style></defs><title>pig</title><path class="cls-1" d="M345.73,428.42c2.31,7.21,4.95,14.33,6.86,21.64,8.07,31,.41,58.64-18,84-12.46,17.14-28.61,30-47.35,39.44A115,115,0,0,1,242,585.67c-17.89,1.06-35-1.16-51.46-7.92-10.62-4.37-20.35-10.3-26.93-20.37-5.48-8.37-5.34-16.36.18-24.57a114.67,114.67,0,0,0,13.35-26c6.4-18.19,4.57-35.13-6.52-51-4.75-6.8-9-13.92-14.26-20.38-2.59-3.18-2.86-6.91-3-11.06-.31-10.62,2.31-20.69,4.37-30.89-.23-.29.42-1.22-.36-.93-1.11.41-1.59,1.63-2.2,2.62a101.43,101.43,0,0,0-10.42,25.75c-.46,1.72-.49,4.06-2.5,4.49-1.72.37-2.69-1.68-3.85-2.8-2.16-2.07-4.28-4.17-5.57-5.54,3.92,4.94,10.69,8.88,13.9,15.94,3.41,5.05,6.78,10.12,9.17,15.78A104.71,104.71,0,0,1,161.53,472c1.84,14.91-2.34,27.73-13.24,38.08a78.5,78.5,0,0,1-16,11.88c-3.55,2-7.1,4.09-11.09,1-3.56-2.72-4.36-6.56-2.61-12.2,5.47-10.16,8.31-12.72,17.35-15.38-2.65-1.54-5.41-2.35-7.28-4.48-7.12-6.73-14.55-13.15-20.63-20.9A128.68,128.68,0,0,1,84.9,424.59c-3.35-12.1,0-23.27,4.45-34.36,3.89-9.62,10.09-17.91,15.21-26.82,4.7-6.93,11.57-11.49,18.06-16.47a43.07,43.07,0,0,1,4.9-3.44c2.36-1.45,4.44-1.41,7-.1,20.65,10.71,42.73,16.17,65.92,15.52,18.42-.52,35.6,4,52.68,9.85a54.16,54.16,0,0,0,39.08-.82c6.64-2.67,11.79-7.42,16.79-12.33,1.29-1.28,2.2-3,4-3.64,2.11-.37,3.48.93,4.68,2.3,11.15,12.78,19,27.17,21.11,44.24a22.91,22.91,0,0,1-.87,10.83c-.63,1.73-1.49,3.16-2.67,2,3.56,3,6.61,7.81,9.81,12.51C346,425.18,347,426.68,345.73,428.42Z"/><path class="cls-2" d="M108.77,539.34a94.66,94.66,0,0,1-23.74-2c-8.21-.9-10.67-4.29-8.4-11.55,6-10.14,14.55-17.54,24.09-20.4a53.76,53.76,0,0,1-17.54-9.2c-3.78-2.82-7.28-5.85-8.16-10.86.73-4.47,4.41-6.16,7.71-8.22a54.56,54.56,0,0,1,15.45-4.62c2.32-.39,4.57-.43,6.59,1,4.42,1.55,6.47,6.21,10.65,8.08,1,3.26.34,6.6.48,9.91-1.44,3.88-2.84,7.87-6.13,10.61-2.54,2.11-1.84,3.24.27,5.28C119.16,516.2,118.43,531.73,108.77,539.34Z"/><path class="cls-3" d="M154.69,448.45l1.88,1a9.3,9.3,0,0,0,1.49,4.11c2.79,5.07,5.18,10.35,7.51,15.67,6.38,14.56,1.9,27.28-6.53,39.1a78.11,78.11,0,0,1-23.48,21.83A47.35,47.35,0,0,1,118,536.56c-.11,0-.19.17-.29.27l1,.79c-2.43,3.65-5.9,3.33-9.5,2.48-1.68-1.4-.11-2.29.58-3.24,7.45-10.3,7.28-18.7-.85-28.8-2-2.45-2.52-4.56-.17-6.93,2.74-2.76,4.33-6.21,5.86-9.7a11.79,11.79,0,0,0,.87-3.85c.17-1.25,0-2.9,1.76-3.15,1.45-.21,2.38.95,3.24,2,1.89,2.29.55,5.27,1.51,7.62,1.21,3,.58,4.68-2.18,6-.82.38-1.28,1.53-.48,2,3.58,2.25,1.84,4.53.3,6.93-.24.37,0,1,0,1.47-.31,1.95-1.26,3.75-1,5.84.58,5.18,5.14,8.62,9.32,6.36,11.76-6.37,22.78-13.68,28.78-26.4,4.67-9.9,4.46-20.13,2.54-30.61C158.25,459.78,156,454.26,154.69,448.45Z"/><path class="cls-4" d="M102.81,655.75c5.56,1.91,11.92,2,17.17-.68s9.12-8.27,8.9-14.15-5.09-11.47-11-11.76a4,4,0,0,0-2.31.45c-2.11,1.32-1,4.74,1,6.28,4.87,3.82,12.38,2.15,16.93-2s6.87-10.2,9-16"/><path class="cls-1" d="M290.7,86.47c14.76-25.07,37.11-41.84,61.56-56.31,9.93-5.87,17.92-14.09,26.37-21.75,3.22.21,4.21-4.6,7.84-3.48,3.06,1.76,3.74,4.67,3.29,7.76-1.76,12.09-5.5,23.3-14.84,31.9-2.57,2.37-4.79,5.14-7.46,7.37C357,60.64,352.24,72.17,349.74,85.12c-2.18,11.28-4.83,22.42-10.7,32.57-3.93,6.78-10,11.06-16.17,15.26a5.91,5.91,0,0,1-4.75,1,2.65,2.65,0,0,1-1.12-1c2.31,2.79,3.69,7.09,5.81,11,1.7,3.11,1.64,5.62-2,7.23-2.85.56-10.64,7.82-12.86,11.38-4.76,7.63-9.28,15.29-10.9,24.37a138.75,138.75,0,0,0-1.93,17.8c-.31,6.28-.14,12.57-1,18.86-1.15,8.7-4.66,13.6-13.13,16.17a96.4,96.4,0,0,1-13.59,3c-7.11.12-14.22,0-21.33.07-3.85,0-7.61-.23-11.16-1.88a7.79,7.79,0,0,0-6.7-.08,105.12,105.12,0,0,0-9.95,5.52c-2.68,1.79-3.58,3.07-.85,6A48.5,48.5,0,0,1,229,273.57c3.31,10.25,6.41,20.56,10.57,30.51a58.93,58.93,0,0,0,5.25,8.45,27.17,27.17,0,0,0,32.93,8.61c5.91-2.65,9.32-7.28,10.59-13.56,2.54-10.68,3.18-21.7,6-32.32,1-3.69,1.88-7.45,4.9-10.17,6.75-2.39,13.95-2.75,20.85-4.57,14.7-3.88,28.44-10,41.68-17.33,2.53-1.41,4.94-3.66,8.23-1.91a10,10,0,0,1,2,6.56c-.05,14.83-1.83,29.2-11,41.67a18.16,18.16,0,0,1-4,4.36c-2.88,2.15-5.29,4.87-8.26,6.92-7,5.07-14.28,9.72-22.58,12.61A123.16,123.16,0,0,0,299,327c-16.05,10.53-33.58,13.49-52.11,9.34-19.69-4.42-39.88-5.42-59.62-9.46-14.86-3.05-29.89-5.57-43.85-11.68-27.9-12.22-46.14-32.54-49.69-63.64-1.38-12.12.93-24.22,4.86-35.87.95-2.29,3.58-2.49,4.67-3.27-.4.65-1.87.21-3.15.39-10.54-.42-20.74-2.33-30.34-6.87A21.19,21.19,0,0,1,65,203.09c-1-.84-2.47-1.64-2.26-3.06.28-1.88,2.13-1.67,3.55-1.9,1.31-.08,2.62,0,3.93,0,10.28,1,19.82-1,28.49-6.85a25.92,25.92,0,0,0,8.71-9.43c3.72-7.05,2.43-12.57-3.86-17.39-3.44-2.63-7.07-5-10.6-7.46-15.45-10.85-23-27.2-30.47-43.56-3.33-7.25-6.68-14.48-10.19-21.64C46.77,80.42,37.6,72.25,28,64.5a41.77,41.77,0,0,1-3.78-3.25,38.41,38.41,0,0,1-6.88-9.78,109.87,109.87,0,0,1-6.08-16.78c-2.36-8.31-.52-11.47,7.88-13.7a2.32,2.32,0,0,1,2.58,1.46c18.23,15.12,40.22,23.48,61,34C90,58,95.27,63,101.05,67.07a114.94,114.94,0,0,1,34.55,38c1.41,2.33,2.87,4.63,3.23,7.41-.52,3.56,1.79,6.32,2.7,9.48,1.61,5.59,4,10.95,4.65,14.31a121.35,121.35,0,0,0-6-17.59c-1.42-3.41-1.26-6.06,1.22-8.61,7.1-7.31,14.58-14.09,24.41-17.63,17-8.65,35.12-12.16,54-12.84,9.32,1.33,18.74,1.28,28.1,2.13A156.44,156.44,0,0,1,279.4,88c2.09-.7,3.25,2,5.3,1.47C288.71,92.5,289.45,89,290.7,86.47Z"/><path class="cls-5" d="M284.7,89.45c-1.89,2.15-2.67-1-4.15-.87-2.38.76-4-1-6-1.69A124.75,124.75,0,0,0,240.94,81c-7.06-.35-14.14-.23-21.21-.48-18.92.54-37.11,4.17-54.06,13-.42-.33-1-.44-1.15-1.1,11.41-7,24.3-9.32,37.14-11.87,15.65-3.1,31.5-2.56,47.23-1.83A73.28,73.28,0,0,1,284.7,89.45Z"/><path class="cls-6" d="M164.52,92.33l1.15,1.1A74.28,74.28,0,0,0,141.51,112c-1.68,2-1.62,3.48-.79,5.78,2.37,6.51,4.35,13.17,6.51,19.76a6.48,6.48,0,0,1-.12,5c-2-10.46-7.18-19.89-9.41-30.28,8.06-6.93,16-14.07,25-19.76Z"/><path class="cls-7" d="M385.7,5.45c-2,0-3,1.66-4.32,2.8-.88.77-1.74,1.6-2.75.16,1.25-1.41,3.29-2,4.09-3.86,4.24-1.64,7.62-6,13-4.08C393.4,4.22,388.85,3.43,385.7,5.45Z"/><path class="cls-8" d="M371.7,730.44a47.09,47.09,0,0,1-13.36-.26,68.06,68.06,0,0,1-14.07-4.2c6.43,7.27,13.21,12.46,16.24,20.55-.55,3.18-3.15,3.68-5.61,4a73.07,73.07,0,0,1-33.84-4.19c-2.91-1.07-4.38-3.42-5.47-6.12-.72-2.91,1.31-5,2.16-7.5,3.63-6,8.06-11,15.7-11.56,2.52-.18,3.21-2,3.72-4a28.08,28.08,0,0,1,3.39-8.77c4-6.09,9.37-9.21,16.83-7.94a18.89,18.89,0,0,1,6.05,3.53c4.55,4.14,8.58,8.66,11.12,14.38a13.6,13.6,0,0,1,1.09,8.68C375.21,729,374.3,730.78,371.7,730.44Z"/><path class="cls-9" d="M315.82,739.49c6.53,9.14,16.84,8.56,26.22,9.78a37.24,37.24,0,0,0,15.27-.67,7.41,7.41,0,0,0,3.2-2.07c1.63,6.91.53,8.91-6.6,10.57-8.5,2-17.11,1.77-25.72.6-1.8-.24-3.62-.29-5.44-.42-2.7.75-5.08.37-6.93-1.94-2.36-4.36-1.48-9-1.33-13.63A3.26,3.26,0,0,1,315.82,739.49Z"/><path class="cls-10" d="M382.69,765.46q0-10,0-20h0"/><path class="cls-7" d="M181.68,766.46a4.7,4.7,0,0,1-.92-.08c-1.7-4.27-.61-8.43.47-12.59,4.19,1.34,6.56-1.32,9-4a67.47,67.47,0,0,0,10.16-14.15c4.24-8.15,3.05-16.61,1.71-25-1.23-7.58-.36-15,.77-22.35a223.24,223.24,0,0,0,2.35-42.82c-.26-6.68-1.49-13.22-6.41-18.46-5.62-6-12.53-7.24-20.15-5.71-4.72.95-7.33,4.4-7.55,9.25a33.87,33.87,0,0,0,1,8.9c3.11,14.47,7,28.79,6,43.87-.57,9.15-3.42,16.9-10.85,22.58-4.24,3.25-7.83,7.23-12,10.53-3,.65-4.64-.92-5.82-3.36.25-2.66,2.31-4,4.2-5.27,12.1-8.2,16-19.32,14-33.74-2.41-16.94-7.34-33.15-12.15-49.43-6.21-21.08-14.27-41.63-17.58-63.51a62,62,0,0,1-.36-14.46,18.25,18.25,0,0,1,5.62-12c8.16-7.63,15.89-15.63,22.27-24.84,3-1.82,3.86-4.74,4-8A59.2,59.2,0,0,1,172,491.54c2.23-5.28.32-15.84-3.52-19.36-4.47-7-7.62-14.74-11.78-21.92a67.55,67.55,0,0,0-3.92-6.94c-3-5.28-6.11-10.5-5.92-16.88.22-2.63-.07-5.35,1.31-7.78,2.38-4.74,3-9.85,3.23-15.06.16-3.26,1.63-6,3.44-8.58.92-.8,1.49-2.45,3.21-1.34,1.65,4.14-.67,7.88-1.63,11.59-1.87,7.25-1.19,14.57-1.65,21.86-.22,3.51,1.82,6.26,3.81,9,7.24,10,14.42,20,19.71,31.2,4.25,9,4.5,18.37,3.05,27.86-2.07,13.42-7.6,25.58-15.38,36.54-8.94,12.59-4.93,23.14,4.93,32.24,8.7,8,19.16,13.22,30.59,16.29,33.21,8.94,64.74,4.64,94.2-13,23.52-14.06,41.25-33.58,51.94-59,9.36-22.26,8.42-44.76.91-67.37-1.33-4-4.1-7.7-3.18-12.3,1.05-.92,2-.37,3,.12a7.18,7.18,0,0,1,2.43,3.11c6.55,14.68,11.35,29.86,13,45.92a8.61,8.61,0,0,1-.2,2.48c-1.21,7.56-1.2,15.25-2.5,22.79A138.91,138.91,0,0,1,331,568.57c-10.12,12.33-21.6,23.24-35.09,31.69-14.32,9-29.65,15.88-46.29,19.53-5.05,1.1-10.13,2-15.23,2.74a28.45,28.45,0,0,1-14.09-1.34c-1.3-.29-.82.79-.85.12,0-.13.15-.11.46-.09,3.88.19,4.68,2.17,3.62,5.67-6.12,20.34-8.76,41.36-11.94,62.28-1.26,8.3-1.69,16.68-.24,24.83,3.3,18.5-3.58,32.85-16.65,45.11a8,8,0,0,0-1.19,1.59,9.22,9.22,0,0,1-7.68,3.88Z"/><path class="cls-11" d="M181.9,753.52c-.07,4.31,0,8.64-1.14,12.86-5.78,2.53-12,3.59-18,5.25-6.67.56-13.36,1.87-20-.23l-2.08-2.95c-3-9.67,2.47-16.78,7.27-24.09.91-1.39,2.25-2.41,3.26-4a97.11,97.11,0,0,1-16.94,4c-3.86.55-7.89,1.41-11.54-1.07-1.86-2.06-1.6-4.21-.28-6.41a16.42,16.42,0,0,1,2.58-3.66c6.65-6.26,13-12.82,20.44-18.23a10,10,0,0,1,3.58-1.72h.73l4.88,3.38c4.21,2,4.92,5.94,5.32,9.91.67,6.61.59,6.57,6.73,8.14,7.4,1.9,12.62,6.33,15.15,13.66C182.39,750,183.18,751.76,181.9,753.52Z"/><path class="cls-7" d="M398.87,3.33l1.73,2.16a2.42,2.42,0,0,1,.58,1.63c.35,11.66-2,23.12-2.59,34.69-.49,9,1,17.88,2.12,26.77,2,15.49,3.68,31,3.47,46.67a122.76,122.76,0,0,1-8.38,43.82,14.93,14.93,0,0,1-.78,1.84c-1.34,2.42-1.87,6.2-4.88,6.43-3.32.27-4.42-3.46-6-5.91a6.66,6.66,0,0,1,.45-3.89c8.81-25.7,8.26-51.86,3.91-78.22-1.6-9.66-3.43-19.29-3.24-29.15.11-5.47,1.61-10.81,1.59-16.29,1.07-7.38,2.62-14.69,3.34-22.15C390.64,6.66,395.26,5.41,398.87,3.33Z"/><path class="cls-12" d="M398.87,3.33c-.81,2.19-1.88,3.74-4.58,4.3-3.86.8-3.44,4.79-3.4,7.32.1,6.42-1.72,12.36-3.19,18.42.19,2.33-1.2,4.12-2.08,6.08-3.09,5-7.16,9.17-11.1,13.44a60.66,60.66,0,0,0-13,21.6c-5.43,15.56-9,31.72-15.59,46.9a69.53,69.53,0,0,1-16.11,23.19c-1.21,1.15-2.37,2.37-4.14,2.63-2.57.16-2.58-2.15-3.46-3.6a38.56,38.56,0,0,1-4.47-10.18c13.08-4.59,20.53-14.33,25.08-26.93,3.84-10.63,5.48-21.81,8.45-32.66a41.21,41.21,0,0,1,10-17.44,145,145,0,0,1,11.31-11.28c9.91-8.55,13.89-19.93,16-32.26.48-2.9,0-5.68-2.89-7.41,2.29-3.74,6.71-3.21,10-5A5.76,5.76,0,0,1,398.87,3.33Z"/><path class="cls-13" d="M317.77,133.43c2,3.75,4,7.47,5.8,11.28.49,1,.95,1.65,2.06,1.74,2.48.46,4.44-1.49,6.86-1.47,1.54,0,3.21-1,4.44.75-.06.51-.45.87-.62,1.29-.35.82.34.2.42.18,12.58-3,24.24-.36,35.34,5.71a12.22,12.22,0,0,0,4.55,1.85c4,1.21,5.94,4.66,8.38,7.58,3.75,5.44,8.69,10.15,10.42,16.86.05.18.86,0,1.29.21,2.17,2.11,2,5.14,3.09,7.7a45.44,45.44,0,0,1-1.53,27.5c-.77,2-1.49,4.1-3.64,5.17-7.27,4.67-15.1,3.09-22.76,1.69A26.5,26.5,0,0,0,354.48,224a65,65,0,0,1-19.43,6.11c-12.64,2-29.66-6.21-32.61-24.75-2.3-14.4,1.61-27.29,8.76-39.52,1.17-2,2.9-3.66,3.6-5.93,1-3.42,3.51-5.76,6.28-7.49,3.12-1.95-.8-1.23-.53-1.95,2.25-1.35,3.07-2.7,1.5-5.48-2.78-5-5-10.26-8-16.69A7.49,7.49,0,0,1,317.77,133.43Z"/><path class="cls-14" d="M7.63,126.44q0-29,0-58c-.46-1.38-.88-2.76.58-4.24,2.19,1.82,1.86,4.23,1.88,6.44.07,8.65-.33,17.32.1,25.95.93,18.58,1.57,37.22,6.57,55.34,2.85,10.32,6.49,20.28,12.09,29.45A57.38,57.38,0,0,0,50.93,202.5c15.63,8.4,32.57,9.52,49.8,9,1.36.28,2.89-.62,4.21.56-1.08,2.3-3.85,1.79-5.28,3.37-1.68,1.78-4.82,2.05-5.3,5.1-3,12.25-5.38,24.55-3.65,37.26a13.45,13.45,0,0,1,.28,2.36c.29,7.38,2.74,14.09,6.35,20.44a65.14,65.14,0,0,0,13,18.1c3.6,4.08,7.28,8.06,12.09,10.78a8.6,8.6,0,0,1,1.11.79c2.44,2.44,5.75,3.52,8.55,5.38a19.56,19.56,0,0,0,2.51,1.25,110,110,0,0,0,26.62,9.53c5,1.62,10.5,1.16,15.52,2.93,3,1.07,6.16,1.13,9.17,2,13.59,2.47,27.26,4.36,41,5.78a93.34,93.34,0,0,1,13.74,2.51c23.05,5.93,44.21,2.14,63.39-12,5.05-3.73,11-5.53,16.56-8.06,17.22-7.82,33.45-17.11,46.51-31.14a1.44,1.44,0,0,1,2,.61c.05,4.7-3.54,7.34-6.18,10.38-5.82,6.68-12.74,12.2-19.65,17.71-4.91,2.79-9.22,6.54-14.26,9.15-3.91,2.12-7.54,4.76-11.6,6.62-5.07,3-10.66,5.1-15.18,9-16.31,11.65-34.54,15.28-54.05,12.25a426.86,426.86,0,0,0-66.51-5.36,113.94,113.94,0,0,1-37.2-6.54,31.76,31.76,0,0,0-8.24-1.82c-3.66-3.79-8.66-5.45-13-8.16-11.77-6.82-21.94-15.4-29.61-26.76-6.37-11.13-12.1-22.47-12.25-35.73.17-6.54-.79-13.13.92-19.59.67-8.83,3.08-17.27,5.86-25.63,1.76-5.3,1.74-5.13-3.61-4.91-28.09,1.14-49.45-10.14-63.54-34.7a128.42,128.42,0,0,1-8.54-20c-3.78-11.13-4.68-22.75-5.89-34.32C6.36,129.12,6.39,127.6,7.63,126.44Z"/><path class="cls-15" d="M70.75,199.34l-4,0c-17.13-.95-27-11.45-33.5-25.95-8.06-17.9-10.9-37-11.88-56.4-.55-11-.26-22-.05-33A95.76,95.76,0,0,0,17.6,56.43c-.46-1.64-2-3.79,1-4.81,1.54,3.2,4,5.73,6.12,8.49C30,66.72,34.4,74,39.86,80.43,48.9,91,51,103.55,52,116.59c.72,9.14,1.88,18.23,4.75,26.95,3,9.12,9.35,15.56,17.76,20a53.34,53.34,0,0,1,9.24,5.88c6.38,5.26,8.35,14.7,4.48,21.71-2.5,4.52-6.25,7.27-11.63,7.29A13.59,13.59,0,0,0,70.75,199.34Z"/><path class="cls-7" d="M18.61,51.62c-1.44,4,1.42,7.14,2.18,10.67,2.91,13.52,2,27.16,1.82,40.75-.32,21.25,2.12,42.05,8.93,62.25,3.84,11.41,9.34,21.67,19.93,28.37,4.7,3,10.24,3.68,15.28,5.73l-3,.19c5.66,6.62,21.44,11.68,37,11.91-9.7,1.92-19.41,1.46-29-.25C59.22,209,47.84,204.08,38.4,195.5c-8.89-8.09-14.53-18.47-18.67-29.6C12.91,147.56,10.48,128.48,9.44,109c-.77-14.46-.24-28.9-.89-43.42-1.49.62-.48,2-.93,2.88-1.24-7-2-14-3.93-20.81a20.35,20.35,0,0,0-.94-2.21A24.7,24.7,0,0,1,1.56,25.5l2-5.12c5.8-5.75,10.87-1.27,16.09,1.16C8.82,25.63,11,28.37,13.46,37.3,14.81,42.23,17.05,46.8,18.61,51.62Z"/><path class="cls-16" d="M369.69,241.45c-3-.08-5.25,1.77-7.71,3.15-19.44,10.88-39.88,18.81-62.28,20.86-5.21,2.72-10.81,1.53-16.18,1.23a82.14,82.14,0,0,1-20.09-3.62c-11-2.48-19.61-9.17-28.15-15.95-1.12-.89-2.77-2.18-1.22-4.12,2.07-.94,3.91.12,5.76.74A81.43,81.43,0,0,0,283,246.28c10.63-2.24,20.21-5.82,23.4-17.83,3.05-.65,4.94,1.65,7,3.05,8.26,5.58,17,5.76,26.17,3a82.54,82.54,0,0,0,15.64-6.34,21.74,21.74,0,0,1,11.43-3c6.75.36,13.47.74,20.18-.42,2.51,2.22,0,3.53-1.11,4.7-3.22,3.34-7.13,5.86-11,8.37-1.06.7-2.21,1.29-3.21,2.1A8.48,8.48,0,0,1,369.69,241.45Z"/><path class="cls-7" d="M369.69,241.45a2,2,0,0,1,1-2c2.56-.32,3.45,1.75,3.41,3.37-.12,4.45,2.91,8.32,2.58,12.49-.73,9,1.21,18.69-5.46,26.51-1.66,2-.12,5.62-3.57,6.6-7,9.76-16.61,16.68-26.91,22.31-16.31,8.91-33.41,16.26-49.48,25.71-14.43,8.49-30.5,8.92-46.43,5.41-14.27-3.15-28.76-4.33-43.15-6.46-5.37-.79-10.69-2-16-3a12.64,12.64,0,0,0-9-2c-5.2-1.66-10.91-.67-16-3.05a26,26,0,0,0-18.75-7.16c-2.87.06-5.34-2.31-8.25-2.81a2,2,0,0,1-2-1c-1.91-3.65-6.19-3.74-9-6h0c-3.64-4.5-8.5-7.56-13-11a52.43,52.43,0,0,1-13-18c.26-1.83-.82-3.1-1.79-4.45a8.38,8.38,0,0,1-1.78-6c.53-4-1-7.43-3.38-10.53,0-.67,0-1.34,0-2,1.4-8.71.55-17.57,1.91-26.31.65-4.25,2-8.39,2.07-12.73s3.58-3.29,6-4c-2.92,10.22-4.9,20.65-4.88,31.26,0,17.9,7.19,33.09,18.94,46.31,14.34,16.15,33.32,23.63,53.62,28.32,13.35,3.09,26.8,6,40.36,7.79,12.28,1.64,24.62,2.65,36.75,5.34a85.55,85.55,0,0,0,12.21,2.09c16,1.19,30.52-3,43.73-12a101,101,0,0,1,24.47-12.08c8.78-3,16.2-8.14,23.84-13,3.44-.71,5.14-3.45,7-6,8.42-8.18,12.46-18.52,13.9-29.84C370.52,256.3,371.82,248.84,369.69,241.45Z"/><path class="cls-17" d="M70.75,199.34a5.72,5.72,0,0,1,4.45-1.86c6.7.05,11.3-3.32,13-9.51s.68-12.26-4.43-16.8A31.42,31.42,0,0,0,76,165.83c-14.59-6.6-21.1-18.45-23.5-33.7-1.74-11.09-2-22.33-4.44-33.35-2-8.92-8.44-14.83-12.67-22.21-3.27-5.71-9-9.76-10.69-16.46C37.5,70.36,49.75,81,56.27,96.71c3.49,8.44,7.84,16.53,11.49,24.91,7.31,16.79,18.25,30.23,34,40,11.65,7.26,12.18,17.43,2,27C94.53,197.37,83.36,200.74,70.75,199.34Z"/><path class="cls-15" d="M238.72,304.35c-5-9.82-7.61-20.47-10.87-30.89,9.09-10.31,16.83-11.09,27.39-2.77,1.07,1,2.11,2.11,3.14,3.2,1.58,1.69,3.14,2.2,5.2.66,4.9-3.66,9.77-2.5,14.32.64,6.14,4.24,10.28,9.86,11.07,17.54,0,3.14.3,6.31-.41,9.42-2.39,10.59-13.79,17.85-25.12,16.32C253.23,317.1,244.94,312.61,238.72,304.35Z"/><path class="cls-18" d="M254.74,271.43c-3.67-2.2-7.11-4.82-11.69-5a14.54,14.54,0,0,0-12.32,5.31c-.75.9-1,2.74-2.88,1.68-2.71-8.31-6.44-16.06-13.19-21.89-1.94-1.69-1.94-2.51.06-4a79.82,79.82,0,0,1,12-7.07c3.23-1.08,5.86-.87,6.73,3.13a73.6,73.6,0,0,0,29.24,18c1,4-3,3.32-4.91,5.13.17,2.05,4.13,4.09,1.06,6.5C257.12,274.53,256.16,272,254.74,271.43Z"/><path class="cls-7" d="M233.43,243.59c-2.15-1.25-3.47-4.27-6.73-3.13,3.07-2.08,6-2.83,9.52-.46,2,1.36,4.61,1.52,7.16,1.49,8.11-.1,16.21,0,24.32,0,8.93,0,17.36-1.17,23.39-8.9,3.26-4.17,2.26-9.18,3.1-13.82a22.8,22.8,0,0,1,.2-3c.29-.94.52-2.07,1.65-2.28s1.82.63,2.33,1.5c.67,1.13,1.12,2.43,2.59,2.82,2.69,3.12,5.69,6.07,5.82,10.6-.13,8.85-5.68,13.42-13.17,16.15-18.78,6.88-37.59,6.51-56.32-.31A7.3,7.3,0,0,0,233.43,243.59Z"/><path class="cls-19" d="M254.74,271.43c1.5-.91,2.66,2.86,4.09.45,1.08-1.83-1.06-2.37-1.93-3.43-1.14-1.39-2.85-2.91.92-3.38,1.92-.24,4.31-.87,4.85-3.51,12.12,3.45,24.52,4.2,37,3.9-3.37,6-4.89,12.6-6,19.32-1.33,7.91-2.75,15.8-4.13,23.7-2.82-.84-1.91-3.09-1.71-4.89a37,37,0,0,0,0-11.26,23.85,23.85,0,0,0-12.21-17.18c-3.88-2.16-8.12-2.57-11.59.59-2.62,2.38-4.16,2.27-6-.61A30.71,30.71,0,0,0,254.74,271.43Z"/><path class="cls-20" d="M300.69,218.49c-4.49,1.6-1.89-3.49-4.46-4.24-2.21,1.73-1.67,4.5-1.48,6.88,1.36,16.76-15.46,22.34-26.32,21-.27,0-.49-.41-.73-.63,5.32-1.15,10.83-1.68,15.84-4,5.76-2.62,8.53-7,9.31-13.55,1.34-11.07,0-22.25,1.89-33.24a66.45,66.45,0,0,1,12.57-29.36c.49-.65,1.19-1.18.91-2.2-1.28-.95-2.47.67-3.75.21a2.68,2.68,0,0,1,.91-2.47c1.67-1.51,3.83-2.28,5.54-3.73a3.21,3.21,0,0,1,1.85-.71c3,.94,5-2,7.78-2l4.83-.59c-3.37,3.5-7.36,5.76-9.66,9.63a2,2,0,0,1-.5,1.83c-12.27,16.12-17.77,34-14.2,54.29A3.86,3.86,0,0,1,300.69,218.49Z"/><path class="cls-21" d="M287.81,292.33c1.87,3.37.74,7,1,10.54.14,1.88-.87,3.92.74,5.61-3.48,12.63-15,18.68-29.6,15.61-11.06-2.33-17-10.08-21.23-19.74.3-1.7,1-1.45,1.74-.3,5.61,8.7,14.32,12.14,23.94,13.2s24-5,23.28-20.45C287.61,295.32,287.76,293.82,287.81,292.33Z"/><path class="cls-22" d="M127.23,109.07c-15-18-30.84-35.12-49.5-49.43C93.35,62.14,126.25,93.28,127.23,109.07Z"/><path class="cls-23" d="M355.69,293.46c-1.11,3.41-2.48,6.53-7,6Z"/><path class="cls-1" d="M357.66,701.33c-11.1,0-16.87,4.69-19.12,16.08-.67,3.38-1.65,4.86-5.55,5-7.06.27-11,5.56-14.41,11-2.44,1.44-4.11-.32-5.8-1.52-14.53-10.3-21-25.08-22.28-42.2-.9-11.93-.45-23.9,2.9-35.62,2.52-8.78,5.94-16.88,12.59-23.41,11.45-11.22,24.86-8.58,30.91,6.22a14.68,14.68,0,0,1,.94,2.83c.6,7.12-2.48,13.68-3.06,20.65-.72,8.6-2.17,17.15-.42,25.77,1.42,4.2,5.4,4.88,8.82,6.33a96.48,96.48,0,0,1,11.29,5C356,698.37,358,698.92,357.66,701.33Z"/><path class="cls-24" d="M336.69,639.42c-1.68-2.45-2.65-5.28-4.07-7.87-4.92-8.95-17.38-7-22.75-2.66-8.06,6.46-12.47,15.25-15.14,25.1-3.09,11.35-3.68,22.91-3,34.51,1.1,17.91,8,33,23.17,43.47a18,18,0,0,0,3.64,1.47l-2.76,6c0,.67-.05,1.33-.08,2C311.8,743,309.49,740,307.1,738a55.77,55.77,0,0,1-17-24.24c-9.16-25.51-10.16-51.11,1.49-76.19,4.79-10.3,11.74-19,22.9-23.2,11.86-4.43,22.72,1.83,24.19,13.7.35,2.82-1.16,5.58-.11,8.39C338.46,637.78,338.79,639.36,336.69,639.42Z"/><path class="cls-16" d="M337.57,636.42c-2.58-3,.58-6.16-.41-9.54-3-10.3-10.47-14.89-20.82-11.75-11.57,3.5-18.74,12.23-23.34,22.43-12.49,27.75-11.46,55.71,1.88,82.93,4.45,9.08,10.66,17.23,20.86,21-.16,4.68-.59,9.37.9,13.95-4.17-.16-7.88-2.1-11.85-3a96.19,96.19,0,0,1-14.05-8c-4.23-.58-5.74-4.44-8.41-6.91a51.54,51.54,0,0,1-11-21.05c-3.75-14-5.25-28.47-7.79-42.73-.49-2.79-1.07-5.56-1.77-8.3a195.87,195.87,0,0,0-3.93-19.63,165.38,165.38,0,0,0-5.57-18.07c-1-2.73-2.72-4.21-5.59-3.86-3.59.44-7.74-1.64-10.63,2.2a55.92,55.92,0,0,0-5.48,12.29c-.61,1.86-.93,3.94-2.87,5.07-4.58,12.48-6.45,25.58-8.92,38.54A128.7,128.7,0,0,0,217.5,721c1.34,11.53-3.42,21-11.12,29.24-1.24,1.33-2.5,2.65-3.74,4l-9.9,6.3c1.18-3.82,4.74-5.71,7.06-8.61,8.46-10.57,12.86-22.07,10.34-35.95-1.89-10.45-1.15-21.07.62-31.53,2.76-16.28,4.7-32.72,8.91-48.73.42-1.6.84-3.21,1.33-4.79,2.47-8.11,2.48-8.11-5.36-10.09,3.9-1.37,7.52.65,11.26.61,14.45-.16,28.15-3.79,41.51-8.89a145.8,145.8,0,0,0,55.81-38.07,144.11,144.11,0,0,0,35.19-68.13c1.53-7.06,1.56-14.45,2.26-21.69.14-1.45-.38-3,1-4.21,1.57,1.4,1.43,3.45,2,5.22a18.22,18.22,0,0,1,.42,4.17c.57,17.66-.39,35.16-5.53,52.21a25.53,25.53,0,0,1-1.14,3.82,102,102,0,0,0-10.27,39.57c-.73,6.74-2.19,13.37-3.14,20.08-1.55,8.25-3.35,16.46-4.76,24.75C339.86,632.5,339.72,634.92,337.57,636.42Z"/><path class="cls-1" d="M181.9,753.52c-2.89-12.23-8.36-17.25-20.31-18.1-2.69-.18-3-1.24-2.73-3.38a20.57,20.57,0,0,0-4.25-15.43c2.26-4.82,6.66-7.75,10.62-10.7,7.91-5.88,11.06-13.47,11.57-23,.84-15.69-3.35-30.52-6.66-45.53-1.77-8,.15-14.85,5.71-16.68,7.75-2.56,15.32-2.07,22.05,3.46s8.32,13,8.72,20.91c.92,18.12-1,36.07-3.81,53.94-.88,5.5.22,11.07,1.25,16.3,2.54,12.88-1.95,23.13-10.13,32.34a86.1,86.1,0,0,1-6.77,7.18C184.07,757.59,182.85,757.33,181.9,753.52Z"/><path class="cls-7" d="M168.72,471.46a28.5,28.5,0,0,1,4,20q-1,5.48-2.05,10.95c-1.67,2.51-1.93,5.73-4,8.06-2.81,3.64-5.6,7.31-8.44,10.93a63.35,63.35,0,0,1-10.89,10.82c-9.35,7.32-9.77,17.31-8.29,27.64,2.58,18,8.47,35.06,13.93,52.28,6,18.79,12.25,37.53,15.3,57.07,1,6.27,2,12.6.76,19.24-1.83,9.49-7.74,15.5-15,20.76a18.15,18.15,0,0,0-4.35,4l-.06.4c-3.42-.45-7.06,0-10-2.44q7.56-7.05,15.12-14.11a10.45,10.45,0,0,0,3-11.62,4.28,4.28,0,0,1-1.22-2.13c-4.12-18.58-10.75-36.39-16.65-54.42q-3.81-11.64-7.14-23.41c-2-7.4-4.2-14.75-6.13-22.17-3.76-12.1-5.52-24.59-7.24-37.08a27.34,27.34,0,0,0-1.74-7.24c-2.25-2.67-.28-3.37,1.87-3.88A57,57,0,0,0,144,522.4c8.5-7.39,15.59-15.75,20.36-26.09,5.09-11.06,2.46-21.41-2.11-31.69-1.54-3.48-3.2-6.93-4.91-10.34-.75-1.51-1.54-2.95-1-4.71a.84.84,0,0,1,1.3-.14"/><path class="cls-14" d="M345.73,428.42c-3.1-7.95-9.27-13.79-14.62-20.57,2.58-.08,3,2.44,4.86,2.78,6.74-13.53-7.12-45.15-22.23-58.23-4.31-2.86-8.77-5.58-10-11.17,2.43-1,3.71.86,5.09,2.17,7.95,7.58,15.62,15.41,21.89,24.49,2.2,4.23,4.67,8.31,7.09,12.41a110,110,0,0,1,9.87,27c.5,2.12.68,4.33,3.14,5.21a13.6,13.6,0,0,0,5.73.66,10.86,10.86,0,0,1,1.51,0c3.29,0,6.58.71,9.88.08a47.89,47.89,0,0,0,16-2.56c3.62-1.44,7.36-2.6,10.57-4.92a108.62,108.62,0,0,0,27.71-24.09c1.25-1.48,1.84-2.9-.13-4.15-3.95-2.5-4.19-6.33-3.24-10.17,1.08-4.35-.92-5.73-4.67-6.19-3.31-.41-6.6-.95-9.5-2.8-.73-.47-1.3-1-1.06-2,8.62-1.77,15.77-6.35,22.55-11.68,1.05-.82,2.24-2.19,3.9-.91.79,2.13-.55,3.8-1.24,5.6-2.63,6.81-4.53,13.73-3.18,21.13,1.5,3,4,2.87,6.76,2.24,5.89-1.37,10.87-4.5,15.65-8,1.41-1,2.52-2.69,4.63-2.41,1.56,2.47-.46,4.06-1.62,5.66A175,175,0,0,1,436.56,386c-9.61,11.89-21.48,21.23-33.88,30-14.6,9.77-30.34,14.57-47.95,10.68-3.18-.71-5.46-.16-7,2.81Z"/><path class="cls-3" d="M145.73,433.38c-4.1-7.54-10.81-12.86-16.5-19l.8-.93,12.28,12c2.68-11.35,6.18-21.74,12.38-31,.9-.26,1.31,0,1.11,1-1.18,2.61-3.23,4.87-3.13,8-1.84,5.22-1.85,10.89-4,16.05-.79,2.27.2,4.8-1,7C147.06,428.77,149.33,431.91,145.73,433.38Z"/><path class="cls-25" d="M145.73,433.38c2.25-1.86-.3-5.07,2-6.93.47.69,1.4,1.42,1.34,2-.87,8.39,5.4,13.77,8.46,20.49.07.15.14.3.2.45l-1.12,0c-1.1.61-1.34-.48-1.88-1C152.79,442.79,148.81,438.35,145.73,433.38Z"/><path class="cls-25" d="M172.72,491.45c-.2-6.89-2.57-13.35-4-20,3.78.35,3.81,3.49,4.49,6.1,1,3.63.17,7.47,1.4,11.11A2,2,0,0,1,172.72,491.45Z"/><path class="cls-25" d="M148.71,419.45c.4-5.58,1-11.11,4-16.05C152.36,409,152.32,414.66,148.71,419.45Z"/><path class="cls-25" d="M166.69,510.46c.94-2.88,1.11-6.14,4-8.06C170.37,505.59,170,508.73,166.69,510.46Z"/><path class="cls-25" d="M155.8,395.42l-1.11-1a15.75,15.75,0,0,1,5.29-5.11,6.65,6.65,0,0,1-2.25,4.16Z"/><path class="cls-9" d="M139.66,711.19c3.49.2,7.06.07,10,2.44C140,720,131.71,728,124,736.55a5.55,5.55,0,0,0-1.31,5.89c-4.39-1.69-3.45-4.84-2-7.92C125,725.14,131.82,717.74,139.66,711.19Z"/><path class="cls-26" d="M384.67,162.44c-3.19-1.73-4.7-5.45-8.16-6.84-5.2-2.42-9.78-6-15-8.41a1.65,1.65,0,0,1-.78-2.48c3.91-7.67,3.69-16.13,4.51-24.36,1.37-13.57,1.36-27.23,3.06-40.8s7.95-24.91,14.87-36.15c.92-1.49,2.63-2.75,1.66-4.89l2.85-5.14c1.91,2.71.18,5.55-.21,8.08-2.08,13.27.6,26.1,2.69,39,4.08,25.16,4.53,50.2-3.3,74.85-.65,2-1.43,4-2.15,6.08.29.25.38.48.26.7S384.77,162.44,384.67,162.44Z"/><path class="cls-27" d="M384.67,162.44l.06-1c2.47,1,2.85,4.05,5.41,5.59,4.77-7.5,7.36-15.81,9.28-24.28,3.5-15.46,3.64-31.07,2.6-46.92-1-15.39-3.78-30.54-4.6-45.93-.79-14.62,2.68-28.8,3.08-43.26,1.94,8,1.4,16.05.63,24.11-1,10.37-1,20.69,1.48,30.9,1.24,1,1.4,2.4,1.54,3.82,1.84,7.33,1.92,15,3.6,22.31.84,6,1.22,12.11,2.09,18.14.69,6.35.37,12.71.29,19.07-.16,6.63-1.28,13.15-2.32,19.67-2.35,9.65-5,19.19-10.45,27.67-1.45,2.26-.26,4.93-1.61,7.1-2.62-.63-2.41-3.31-3.54-5C389.59,170.49,387.17,166.43,384.67,162.44Z"/><path class="cls-17" d="M384.85,38.51c3.31,1,1.21,2.57.4,4-3.68,6.62-7.71,13.08-10.92,19.93-3.82,8.17-4.69,17.17-5.57,26-1.64,16.6-1.17,33.39-4.2,49.86-.47,2.53.44,6.43-3.86,7.14a3.62,3.62,0,0,1-3.33.5,37.41,37.41,0,0,0-18.77.05,2.31,2.31,0,0,1-1.88-.45c-3.36.32-6.7.72-9.79,2.23-2,1-1.82,0-1.3-1.38,13.9-10.68,20.16-25.95,25.17-42C354.17,93.72,357.52,83,361,72.22c2.43-7.52,6.87-13.84,12.19-19.62C377.31,48.11,381.63,43.76,384.85,38.51Z"/><path class="cls-7" d="M354.39,74.87c1.06-3.46,1.26-7.33,5.56-10.73C358.81,69.05,357.06,72.18,354.39,74.87Z"/><path class="cls-28" d="M393.82,219.53a24.92,24.92,0,0,1-6,6c-8.76,3.47-18-.61-26.86,1.85-6.25,1.73-11.71,5.27-17.79,7.52-13.65,5.06-25.59,2.93-36.43-6.52l-6.09-9.92c-5.06-16.8-1.37-32.38,6.87-47.2,2.31-4.16,5.42-7.89,8.16-11.82,1.54,1.16.33,2-.36,2.84-8.07,10.06-11.56,21.86-12.55,34.43-1.33,16.82,10.22,31,27,32.34,7.38.58,14.91-1.54,21.53-5.12,7.19-3.9,14.38-5.63,22.46-3.58A33.25,33.25,0,0,0,393.82,219.53Z"/><path class="cls-29" d="M319.77,212.43c-8.92-8.69-1.34-33.49,9.81-34.06,2.08-.23,2.93,1.28,3.7,2.74,4.55,8.67,1.41,23.33-6.35,29.24C324.89,211.91,322.79,213.94,319.77,212.43Z"/><path class="cls-18" d="M377.84,205.43c-7.57-5.35-11.5-16.89-8.44-24.87.65-1.69,1.33-3.38,3.17-4.19a5.17,5.17,0,0,1,5.14.57c7.09,4.93,10.5,17.79,6.8,25.58C383.11,205.47,381.17,207,377.84,205.43Z"/><path class="cls-30" d="M319.77,212.43c13.47-4.42,19.28-24.61,9.81-34.06,4.46-1.08,6.79,1.62,8.51,5,4.29,8.54.93,23.35-6.54,29.31C327.18,216.2,323.82,216.12,319.77,212.43Z"/><path class="cls-31" d="M377.84,205.43c4.69.73,5.42-2.79,6.34-6,2.12-7.4-2-18.63-8.24-22.52-.9-.55-2.24-.38-3.37-.55,3.5-2.5,6.77-1.31,9.46,1.14,6.82,6.21,9.29,14.09,7.42,23.05C388.16,206.7,383.49,208.45,377.84,205.43Z"/><path class="cls-13" d="M336.72,145.6c8-3.67,16-2.57,24-.1,5.62,2.82,11.19,5.71,15.81,10.1-4.06,1.06-6.58-2.37-9.55-3.82-11.21-5.44-22.58-5.32-34.65-2.68C333.19,146.92,335.67,147.09,336.72,145.6Z"/><path class="cls-7" d="M303.66,341.37l10.08,11c-3.46,3.29-6.42,7-10.25,10-15.54,12.3-32.63,13.71-50.65,7.54-18.82-6.44-37.83-10-57.93-9.79-21.9.2-42.84-5.56-62.16-16.29a2.65,2.65,0,0,0-3.43.21c-2.18,1.5-4.43,2.9-6.65,4.34-.68-.31-1.26-.7-1.24-1.57,3.72-3.51,7.16-7.52,12.95-7.46,5.61-1.8,10.23,1.63,15.19,3,11.07,3,22.31,5.06,33.73,5,22.74-.18,45.15,2.44,67.61,5.72a66.83,66.83,0,0,0,46.27-9.57c1.79-1.13,3.3-2.84,5.61-3C303.63,340.24,303.88,340.57,303.66,341.37Z"/><path class="cls-32" d="M303.66,341.37l-.87-.88c2.44-3.41,6.3-4.72,9.85-6.39a25.78,25.78,0,0,0,4.17-2.51c1.37,1.53,4.39-.19,5.13,2.6a.91.91,0,0,1-1,.63c1.9-.26,3.74,1.45,5.66.13a1.89,1.89,0,0,1,2.34,1,7.21,7.21,0,0,0,0,2.58c-.76,2.22-2.76,3.25-4.36,4.66-3.86,3.41-3.92,6.05-.1,9.55,2.83,2.58,6.14,4.54,9.11,7,7.26,5.95,11.73,13.16,12.58,22.83,1.34,15.35,14.48,25,29.58,21.85,11-2.27,21.34-6.34,29.43-14.66a28.52,28.52,0,0,0,4.62-6.48c4.07-7.53,3.41-11.27-3.76-15.92s-9.79-11-9.51-19c.07-1.95-.32-4.81,3.33-4,1.77,2.76,1.18,6.17,2.49,9.06.5,1.05,1.3,2,1.35,3.22,3.91,2.82,8.61,3.18,13.11,3.77,3.8.49,4.42,2.45,3.64,5.44-1.26,4.79-1.92,9.21,3.9,11.62,1.65.68,1.59,2,.55,3.23-8.47,9.76-17.5,18.89-28.7,25.57a4.73,4.73,0,0,1-1.45.31c-.66.46-1.49,1.23-2.11,1-3.95-1.18-5.74,1.74-7.94,3.94a34.72,34.72,0,0,1-17,3,9.35,9.35,0,0,0-7.23-6c-3.29-.7-6-2.71-9.22-4.85.77,3.62,3.64,7.09-.55,9.82-2.29.11-3.67-.62-4-3.22-1.34-10.59-5.73-20.18-10-29.81,4-6.27,1.1-11.32-7-12a174.13,174.13,0,0,0-21.66-24.14C306.76,343.08,305.7,341.5,303.66,341.37Z"/><path class="cls-7" d="M93.67,219.42c2,5.64-1.26,10.9-1.23,16.5,0,6-.65,12.1-.77,18.17,0,1.66.81,3.89-2,4.37-1.85-3.6-1.15-7.51-.89-11.19C89.47,237.84,90,228.34,93.67,219.42Z"/><path class="cls-23" d="M373.65,237.48a94.27,94.27,0,0,1,3.2,27.43,45.47,45.47,0,0,1-8.15,24.51l-1-1c1.15-8,9.7-14,6.34-23.2,4.91-7.62-1.43-14.73-1.07-22.16a3.57,3.57,0,0,0-2.23-3.61Z"/><path class="cls-7" d="M133.69,317.46c6.7,1.06,13.45,1.88,20.07,3.27,3.41.72,4.78,4.28,6.93,6.7A81.82,81.82,0,0,1,133.69,317.46Z"/><path class="cls-7" d="M89.73,260.46c4.71,1.49,5,5.79,4.69,9.31-.25,3.23-.57,5.74,2.32,7.88,1.42,1.05,1.32,2.56-.06,3.82A40,40,0,0,1,89.73,260.46Z"/><path class="cls-7" d="M109.66,299.47c5,.83,7.83,5,11.84,7.41,1.26.74,1.24,2.25,1.17,3.61C117,308.42,113.44,303.8,109.66,299.47Z"/><path class="cls-7" d="M122.67,310.48c3.69,1,8.27.6,9,6C128.64,314.54,124.67,314,122.67,310.48Z"/><path class="cls-7" d="M176.66,330.48c3.87-3.31,6.38-.35,9,2C182.68,331.8,179.49,332,176.66,330.48Z"/><path class="cls-33" d="M103.81,361.55c6-4.61,11.47-10,18-14.06.31.31.6.63.9.94-6.11,4.49-12.11,9.11-17,15-3.55,4.62-7.64,8.81-11.21,13.42a21.42,21.42,0,0,0-4.09,5.23c-.49.81-1,1.62-1.52,2.39-5.67,8.66-11.32,17.31-10.83,28.32A45.62,45.62,0,0,0,80.42,425c.37,1.15.7,2.33,1.1,3.48,3.13,8.72,6.66,17.24,11.67,25.08.51.77,1,1.55,1.44,2.36a34,34,0,0,0,4,6.18c1.1,1.66,3.41,2.82,2.29,5.42-1.71.69-2.65-.59-3.76-1.45C92.29,460.09,86.93,454.58,83,448c-.81-1.2-1.6-2.41-2.45-3.58a78.87,78.87,0,0,1-11-25.54c-1.51-6.39-.48-12.23,2.14-18a93.6,93.6,0,0,1,9-15.51c5.85-7,11.55-14.22,18.35-20.42C100.47,363.62,101.74,362,103.81,361.55Z"/><path class="cls-3" d="M100.7,467.42c.07-2.3-2.32-3.13-3-5-.94-2.25-1.47-4.77-4-6l-1-2c-2-8-6.23-15.21-8.82-23-.52-1.56-2.13-2-3.22-3-1.16-.72-.93-1.9-1-3a134.26,134.26,0,0,1,9-42.05,2,2,0,0,1,1-2c2.23-1,2.86-3.21,4-5,3.41-4.87,6.89-9.68,12-13-.52,4.21-3.73,7-5.91,10.18-4.66,6.77-7.86,14.19-11.06,21.62-6.83,15.84-3.47,31,3.35,46,8.25,18,19.54,33.75,35.07,46.26a21.39,21.39,0,0,1,2.59,3c-3.53,1.59-5.51-1.32-7.72-2.94s-4.29-3.59-6.77-4.92c-4-2.32-7.09-5.89-10.82-8.63A19.22,19.22,0,0,1,100.7,467.42Z"/><path class="cls-7" d="M115.42,481.55c5,2.51,8.47,7.62,14.28,8.91,2.61,2.55,6.34,3.11,10.47,5.7-10.7.51-16.09,6.74-20.45,14.31-4.75-3,2-3.35,1.12-5.5-4.94-3-4.94-3,.32-6.85a2.23,2.23,0,0,0,.71-.65c.62-1.22-3.32-11.22-4.79-12.21-1.07,1.94.47,4.38-1.18,6.2C113.4,488.27,113.75,484.94,115.42,481.55Z"/><path class="cls-11" d="M424.6,371.56c-2.44-8.12.37-15.55,3-23,.61-1.7,1.35-3.36,2-5,1.21-5.4,5.94-4.92,9.81-5.86,3.58-.59,6.28,1.52,9.21,3,1.95,1.54,4,3.05,4.6,5.67.74,5.09-1.75,9-4.87,12.55-4.66,5.3-10.49,9.11-16.68,12.42A7.65,7.65,0,0,1,424.6,371.56Z"/><path class="cls-34" d="M439.65,338.59c-3.63,1-7.52,1.54-10,5-4.43,3.15-8.78,6.45-13.33,9.42-3.79,2.47-8,4-12.65,3.58l-2.05-2c-.3-.5-.19-1.07.3-1.2,10-2.6,15.52-10.3,20.74-18.27a10.13,10.13,0,0,0,1.91-7.56c-.37-1.93.39-2.86,2.38-2.72,3.26,1.09,5.22,3.64,6.42,6.58A12.8,12.8,0,0,0,439.65,338.59Z"/><path class="cls-35" d="M424.6,371.56c11.75-.68,26.08-13.48,28.12-25.12,4.22,2.52,5.1,6,3,12.07-1,1.39-2,2.79-3,4.18-6.24,4.5-12.22,9.49-20,11.18C429.64,374.55,426.5,375.2,424.6,371.56Z"/><path class="cls-7" d="M350.69,413.47c1.44-3.05,1.75-6-1-8.57-.86-.83-1.48-2-.3-3,.89-.74,1.92-.24,2.64.49,3.13,3.16,7.12,4.76,11.27,5.73,3.66.86,4.9,2.85,4.36,6.34-3.33,1.3-6.65-.47-10,0-.78-1.27.55-3-1-4.26-1.32,1.46,1,2.91,0,4.25C354.67,414.17,352.46,415.21,350.69,413.47Z"/><path class="cls-7" d="M329.72,368.45c4.8-2.47,5.65-1.84,9.93,5.35,2.37,4,0,5.31-2.93,6.64Z"/><path class="cls-7" d="M384.69,411.46c.83-6.75,6-4.7,10.05-5C392.17,409.71,388.17,410.06,384.69,411.46Z"/><path class="cls-32" d="M356.68,414.42a17.94,17.94,0,0,1-1.37-2c-.57-1.13-1.53-2.55-.55-3.55s2.44-.13,3.6.5c1.85,1,.66,2.19.22,3.32a18.05,18.05,0,0,1-.88,1.76Z"/><path class="cls-1" d="M341.7,341.44c8.47,4.85,16.11,11,24.81,15.49,3.81,2,7.26,2,10.75-.32,5.36-3.6,10.73-7.13,14.64-12.48a12.9,12.9,0,0,0,2.91-8.72c2.6-.63,5.39-2.49,7.36,1.11-.34,2.8.31,5.91-2.49,7.93-1.1.17-1.89.68-1.92,1.9-.22,7.55.53,14.82,8,19.07,8.21,4.7,11.3,8.81,3.92,20.57s-19.58,15.82-31.93,19.41c-17.95,5.22-32.87-9-33.27-25.66-.26-10.22-8-16.66-15.82-22.32-.81-.59-1.63-1.15-2.45-1.71-8.22-5.59-8.3-8.68-.46-14.93a28.7,28.7,0,0,0,3-3.27c2.59-1.64,4.29,2.55,6.86,1.05Z"/><path class="cls-36" d="M399.68,344.45c1.16-2.59.29-5.65,1.91-8.14.28-3.69,2.16-6.84,3.5-10.17-1.78,4.39-2.72,4.88-6.18,2.41-4.29-3.06-8.65-6.07-11.8-10.47-2.09-2.91-2.69-6.26-3.38-9.62,1.36-3.62,4.61-3.78,7.71-4.1,4.14-.42,8.2.3,12.26,1,5.22-.16,9.25,2.14,12.48,6.07.33,4.52-4.81,5.06-6.05,8.6,5.2-1.55,9.91.1,14.43,2.56,1.07.58,2.52,1.1,2.12,2.87-1.46.08-1.33.77-1,2,.92,3.66-.84,6.66-2.73,9.58A50.7,50.7,0,0,1,407,353c-1.85,1.16-3.68.68-5.36,1.48C399.42,351.47,400,347.87,399.68,344.45Z"/><path class="cls-7" d="M316,338.7c1.28.48,4.89-3.44,5.7.34.43,2-2.91,5-6.22,5.35-3.11.29-4.71-2.49-4.92-4.53C310.38,338,313.05,337.76,316,338.7Z"/><path class="cls-7" d="M322,334.29a9.44,9.44,0,0,1,4.74,1.17c-2.8,5.07-4.55-2.14-6-1Z"/><path class="cls-7" d="M335.61,338.56c-2.69,2.26-4.46-1.46-6.86-1.05-.85-.5-.54-.86.13-1.18Z"/><path class="cls-7" d="M88.68,383.43c.25.61.88,1.4.69,1.8-2.57,5.5-3.21,11.55-5,17.21-1.89,6-1.82,12.24-3.22,18.26a19.24,19.24,0,0,1-1.49,4.78,31.47,31.47,0,0,1,.4-28.46C82.48,392.26,84.11,386.87,88.68,383.43Z"/><path class="cls-7" d="M80.66,428.47c1.31.12,3-1.42,3.83.78,2.87,7.31,5.7,14.64,8.63,21.93a3.83,3.83,0,0,1-.42,3.27A79.58,79.58,0,0,1,80.66,428.47Z"/><path class="cls-7" d="M93.73,456.46c4.28,0,3.8,3.21,4,6A19.29,19.29,0,0,1,93.73,456.46Z"/><path class="cls-7" d="M93.68,376.42c-.11,2.65-.38,5.18-4,5C90.66,379.49,91.53,377.45,93.68,376.42Z"/><path class="cls-37" d="M426.68,325.47c-5.41-4.51-11.69-5.4-18.45-4.14.62-5,6.22-5.8,7.64-9.89,6.35-5.2,20.77-4.75,26.76.84,1.82,1.07,3.82,1.88,5.07,3.73,7,7.25,7.39,18.49,1,25.52-3.09-.74-5.56-3.34-9-2.94-3.44.06-5.5-1.12-6.38-4.92C432.45,330.16,429.88,327.4,426.68,325.47Z"/><path class="cls-38" d="M448.67,341.53c2.41-6.07,4.2-12.12,2.18-18.84-.74-2.47-2.47-4.29-3.15-6.68,13,8.26,18,28.76,9.83,40.84a11.14,11.14,0,0,1-1.76,1.66c-.22-4.23.18-8.61-3-12.07C452,344.26,449.73,343.4,448.67,341.53Z"/><path class="cls-39" d="M383.73,308.46c2.35,8.25,8.15,13.63,14.82,18.48,3,2.21,5,3.27,6-1.48.23-1.13.46-2.33,2.48-2.76-1.68,5.08-4,9.67-4.73,14.72-.13-.06-.34-.08-.39-.18a7.36,7.36,0,0,1-.34-.93c-2-2.06-4.76,1.15-6.79-.9-2.12-5.77-5.94-10.65-8.52-16.17C384.7,315.83,382.5,312.55,383.73,308.46Z"/><circle class="cls-29" cx="244.86" cy="166.66" r="13.17"/><circle class="cls-29" cx="278.22" cy="157.88" r="13.17"/><path class="cls-40" d="M329.83,425.65a.08.08,0,1,0,.1-.12C329.85,425.47,329.75,425.59,329.83,425.65Z"/><path class="cls-14" d="M70.78,383.16"/><path class="cls-41" d="M128.49,338.52S81.75,370.4,77.83,378.17s72.24,40.51,72.24,40.51,58.11,92.06-29.2,115.68h-5.42L117.53,585l117,10.2,11.65-27.49,20.19,25.72,101.81-9.76S379,438,365.23,427.28h26.18l-11.59-77.7s-33.94-16.27-56.73-19.82c0,0-9.58,38.33-32.72,49.91S128.49,338.52,128.49,338.52Z"/><path class="cls-42" d="M389.69,414.58c-8.64.07-17.27.1-25.91-.06-1.77,0-3.53-.1-5.29-.16-.14,6.93-.34,13.86-.64,20.79a424.73,424.73,0,0,1-10.93,80.78c-6.06,25.12-15.69,49-26.08,72.56l47.59-4.56s10.77-145.66-3-156.41h26.18Z"/><path class="cls-1" d="M161.53,473a104.71,104.71,0,0,0-5.63-23.24c-2.39-5.66-5.76-10.73-9.17-15.78a26.84,26.84,0,0,0-5.62-7.72,1.82,1.82,0,0,0,1.14.12c2-.43,2-2.77,2.5-4.49.36-1.34.74-2.67,1.13-4-9.17-4.65-18.32-9.32-27.52-13.92-9.42-4.71-18.36-10.72-27.9-15.28-.38.83-.76,1.66-1.11,2.51-4.48,11.09-7.8,22.26-4.45,34.36A128.68,128.68,0,0,0,108,471.06c6.08,7.75,13.51,14.17,20.63,20.9,1.87,2.13,4.63,2.94,7.28,4.48-9,2.66-11.88,5.22-17.35,15.38-1.75,5.64-.95,9.48,2.61,12.2,4,3.05,7.54.92,11.09-1a78.5,78.5,0,0,0,16-11.88C159.19,500.75,163.37,487.93,161.53,473Zm-28.7-55c1.29,1.37,3.41,3.47,5.57,5.54a7.89,7.89,0,0,1,.54.59A59.79,59.79,0,0,1,132.83,418.06Z"/><path class="cls-42" d="M145.79,346.32c-11.72-4.2-19.16-7-19.16-7S79.89,371.16,76,378.94c-1.26,2.49,5.73,7.56,15.8,13.28C105,377.07,131.24,357,145.79,346.32Z"/><path class="cls-42" d="M132.6,530.42A99.23,99.23,0,0,1,119,535.13h-5.42l2.08,50.66,21.26,1.85Z"/><path class="cls-43" d="M104.4,397.26c2.54,1.32,5.14,2.63,7.76,3.92a37.84,37.84,0,0,0-4.76-3.34C106.13,397,105.09,396.88,104.4,397.26Z"/><path class="cls-43" d="M146.7,522.94c-.81.55-1.63,1.1-2.49,1.64l.32.12C146.3,525.38,147.31,524.82,146.7,522.94Z"/><path class="cls-43" d="M175.43,460.54c.1-1,.13-2.12-1.06-2.5s-1.84.42-2.46,1.26c-1.77,2.42-3.18,4.77-3.21,8.1a15.79,15.79,0,0,1-.22,2.43c.2,1.7.34,3.4.43,5.11a13.63,13.63,0,0,1,3.45-6.23C174.65,466.28,175.14,463.53,175.43,460.54Z"/><path class="cls-43" d="M86.94,381.67c-2.23-2.32-4.44-4.58-7.4-5.79a11.51,11.51,0,0,0-1.71,2.29c-.82,1.62,1.86,4.33,6.6,7.61l.73,0C88.2,385.6,89.28,384.1,86.94,381.67Z"/><path class="cls-43" d="M326.13,331.57c.88-.17,1.38-.52,1.4-1-1.51-.32-3-.6-4.44-.82,0,0-.2.82-.62,2.22A17,17,0,0,0,326.13,331.57Z"/><path class="cls-43" d="M168,447.28a20.81,20.81,0,0,0-5.52-2.39q1.17,3.25,2.22,6.74c1-.27,1.94-.6,2.92-.95C169.77,449.88,170.22,448.53,168,447.28Z"/><path class="cls-43" d="M372.09,404.29c-4.84-.32-8.25,1.92-11.78,4.43-.92.66-1.64,1.57-1.24,2.72a2.62,2.62,0,0,0,2.59,1.6c4.14.16,8,0,11.64-2.79a17.08,17.08,0,0,1,15.1-3.14L387,397.49A16.86,16.86,0,0,1,372.09,404.29Z"/><path class="cls-43" d="M259,574.57c0-.69,0-1.42-.8-1.63s-1.21.34-1.59.93a9.56,9.56,0,0,0-1.86,4.72L256.6,581c.2-.27.4-.55.63-.82A8.47,8.47,0,0,0,259,574.57Z"/><path class="cls-43" d="M97.5,375.83a1.61,1.61,0,0,0,2.75.08c2.55-4.09,4-8.19,2.61-13.39a18.7,18.7,0,0,1-.7-5.27c-1.54,1.14-3.08,2.29-4.58,3.44-.18.49-.38,1-.61,1.49C94.72,367.06,95.56,371.4,97.5,375.83Z"/><path class="cls-43" d="M177.51,362.81a.8.8,0,0,0,1.37.05,8.1,8.1,0,0,0,1.45-6l-3-1c0,.05,0,.1-.05.15C176.12,358.43,176.54,360.6,177.51,362.81Z"/><path class="cls-43" d="M120.07,345.05c1.55,2.53,2.9,3.25,5.7,2.24,5-1.79,6.9.66,6.49,5.43-.22,2.53.49,3.69,3.13,4.61,5.36,1.89,6.8,6.39,3.78,11.34-3.74,6.14-9.32,9.83-16.65,9.34-4.84-.32-8.25,1.92-11.77,4.43-.93.65-1.65,1.57-1.25,2.72a2.63,2.63,0,0,0,2.59,1.6c4.14.16,8,0,11.64-2.79,6-4.61,12.86-4.75,19.59-1.5,5.22,2.52,6.38,7,2.88,11.54-1.67,2.16-1.85,3.52-.06,5.52,3.36,3.75,2.67,6.71-2.27,8.05-2.85.77-3.57,2.16-3.54,5.07a9.09,9.09,0,0,1-.13,1.68c6,2.68,9.87,4.35,9.87,4.35s.74,1.18,1.92,3.28c1.91.29,2.8-.29,3.61-2.35,1.5-3.84,5.44-4.8,9-2.24,4.42,3.23,7.09,7.69,6.35,13.29-.55,4.1,1.06,7.1,3.49,9.92a1.24,1.24,0,0,0,2-.56c.95-3.59,1.11-6.95-1.13-10.45-3-4.66-2.94-9.83-.24-14.74,2.16-3.94,5.76-4.81,8.93-2,1.72,1.5,2.88,1.72,4.7.35,3.26-2.45,5.23-1.09,6,2.51.42,1.91,1.21,2.6,3.36,2.69,4.37.17,6.45,3.15,5.35,7.48-1.35,5.36-4.62,9.35-10.12,10.65-3.63.87-5.63,3.29-7.65,5.94a1.81,1.81,0,0,0-.3,2.28,2,2,0,0,0,2.27.59c3.08-.82,5.88-1.83,7.93-4.7,3.39-4.77,8.38-6.41,14.07-5.56,4.41.67,6.28,3.71,4.74,7.84-.74,2-.56,3,1.21,4.07,3.32,2,3.49,4.33.16,6.44-1.92,1.21-2.13,2.4-1.45,4.53,1.29,4-1,7.25-5.27,7.57-5.65.42-10.65-1.32-13.9-6.19-2.09-3.14-5.24-3.92-8.42-4.78-2.32-.63-3.29.54-2.28,2.71,1.4,3,2.7,6.07,6.2,7.42,4.77,1.85,7.2,5.74,8.38,10.49,1.46,5.9-.85,8.82-6.91,8.42-2.08-.14-2.59.92-3.18,2.34-1.46,3.57-3.6,4.21-6.33,1.32-1.55-1.64-2.7-1.65-4.65-.33-3.62,2.43-6.49.71-8-2.86a18.09,18.09,0,0,1-1-2.95c-.3,9.46-2.55,18.86-7.94,27.28a10.58,10.58,0,0,1-3.36,5.44c-2.6,2.31-3.23,5.1-3.24,8.23a1,1,0,0,0,1.6.77c2.59-1.76,4.54-3.81,5-7.26a11.66,11.66,0,0,1,8-9.51c3.55-1.31,6.32.12,6.8,3.64.26,1.9.88,2.68,2.79,2.81,3.43.24,3.92,2.19,2.44,4.91-.79,1.45-.67,2.32.65,3.55,2.69,2.52,2.37,5.56-.71,7.71-3.82,2.66-8.09,3.4-12.3,1.2-2.79-1.45-5.39-1-8.14-.44-.72.14-1.39.5-1.45,1.29a1.72,1.72,0,0,0,1.12,1.62c2.41,1.17,4.75,2.07,7.63,1.38,4.79-1.16,8.86.54,12,4.21,2.43,2.86,1.95,5.83-1.31,7.6-1.55.84-2,1.6-1.47,3.26,1,3.09-.16,4.67-3.44,4.18-1.89-.29-2.68.34-3.42,2.08-1.39,3.26-4.61,4.07-7.52,1.91-3.83-2.85-6-6.7-5.43-11.59.4-3.15-1.17-5.39-2.72-7.68-1.13-1.67-2.39-1.47-2.94.47-.76,2.66-1.62,5.34-.14,8.13,2,3.8,1.41,7.61-.46,11.28-2.32,4.56-5.39,5.15-9,1.55-1.24-1.24-2.15-.84-3.31-.26-2.89,1.47-4.61.69-4.75-2.65-.08-1.89-.81-2.53-2.77-2.77-3.65-.45-4.52-3.12-3.5-6.22,1.56-4.76,4.89-7.88,10-8.4,2.78-.28,4.61-1.76,6.45-3.5.62-.6,1.25-1.27.7-2.18s-1.41-.74-2.26-.55c-2.46.56-4.65,1.28-6.51,3.39-3.19,3.63-7.48,4.73-12.21,3.45-1.19-.32-2.6-.74-3.09-2a9.82,9.82,0,0,1-.58-3h-4.7l1.82,44.21c.1-.11.2-.22.31-.32,4.21-4.06,9-3.76,11.87.91,1.55,2.53,2.9,3.24,5.7,2.24,5-1.79,6.9.66,6.49,5.42,0,.11,0,.2,0,.3l40.51,3.53a13.55,13.55,0,0,1-5.81-6.37c-1.75-3.59-.32-6.38,3.59-7.32,1.74-.42,2.36-1.18,2.42-2.92.11-3.21,1.68-4.64,4.78-3,1.73.94,2.65.76,3.93-.85,2.23-2.8,5.73-2.59,8,.43,2.84,3.81,3.91,8.18,1.86,12.62-1.49,3.23-.95,6.11.32,9l1.84.16,0,0c1.71-2.73,2.7-5.47,1.74-8.94a12,12,0,0,1,3.57-12.26c2.8-2.71,6-2.51,7.92.61,1,1.69,1.93,2.17,3.8,1.49,3.32-1.19,4.6.44,4.33,3.62-.15,1.69.33,2.47,2.08,3.08,3.58,1.26,4.54,4.27,2.53,7.57-2.31,3.77-5.65,6.16-10,6.25l15.52,1.35,5-11.7a5.82,5.82,0,0,0-.73-.08c-.37,0-.46-1.21-.13-1.83,1.22-2.3,0-3.24-2-3.75l-.85-1.83a8.31,8.31,0,0,1,9.84-6.92l.59-1.38,1.39,1.77a11.17,11.17,0,0,0,5.79-1.24c1.44-.6,1.7-1.52.14-2.28-2.09-1-4.13-2-6.68-1.2-3.64,1.12-6.84-.23-9.46-2.74-2.22-2.13-1.92-4.53.66-6.26a2,2,0,0,0,1-2.75c-.77-2.36,0-3.81,2.68-3.42,1.5.22,2.12-.15,2.62-1.66.87-2.62,3.46-3.4,5.89-1.81,3.07,2,5,4.88,4.7,8.65-.22,2.75,1,4.7,2.68,6.49a.82.82,0,0,0,1.34-.44c.51-2.43.5-4.68-1.11-6.93a9.24,9.24,0,0,1-.68-9.83c1.31-2.71,3.68-3.41,5.89-1.66,1.2.94,2,1.05,3.15.07,2.09-1.75,3.45-.91,4.1,1.47.34,1.26.89,1.69,2.33,1.67,2.92,0,4.42,1.88,3.84,4.81-.72,3.63-2.76,6.4-6.39,7.46-2.39.7-3.64,2.39-4.9,4.23a1.21,1.21,0,0,0-.12,1.53,1.36,1.36,0,0,0,1.54.32c2-.66,3.86-1.43,5.12-3.42,2.11-3.29,5.37-4.57,9.2-4.19,3,.29,4.33,2.25,3.44,5.06-.42,1.34-.27,2,.95,2.68,2.29,1.21,2.48,2.77.33,4.29-1.24.87-1.34,1.67-.81,3.07,1,2.63-.39,4.87-3.25,5.24-3.76.48-7.15-.51-9.49-3.65-1.51-2-3.64-2.44-5.79-2.9-1.57-.33-2.18.48-1.43,1.89,1,1.94,2,4,4.4,4.74,3.25,1.07,5,3.58,5.95,6.71,1.19,3.89-.25,5.91-4.31,5.85-1.4,0-1.7.71-2,1.68-.62,1.76-1.53,2.49-2.72,2.08l.27.34,55.71-5.34a9.29,9.29,0,0,0-4.75,0c-5.52,1.39-10.2-.87-13.92-4.83-3.15-3.36-2.53-6.92,1.47-9.3,1.77-1.05,2.19-2.1,1.67-4-1-3.58.28-5.68,4.27-4.89,2.23.44,3.17-.07,4-2.28,1.5-3.85,5.44-4.81,9-2.24,4.42,3.23,7.09,7.68,6.35,13.28-.55,4.11,1.06,7.1,3.49,9.92a1.23,1.23,0,0,0,2-.56c.95-3.59,1.11-6.95-1.13-10.44-3-4.66-2.94-9.84-.24-14.74,2.16-3.94,5.76-4.81,8.93-2,1.72,1.51,2.88,1.73,4.7.36,3.26-2.46,5.23-1.09,6,2.51.42,1.91,1.21,2.6,3.36,2.69,4.37.17,6.45,3.15,5.35,7.48-1.35,5.36-4.62,9.35-10.12,10.65-3.63.86-5.63,3.29-7.65,5.93a3.51,3.51,0,0,0-.27.4l9-.86a10.48,10.48,0,0,0,1.18-1.36c3.34-4.68,8.21-6.35,13.78-5.6.7-10.5,2.21-34.58,3-60.54a11,11,0,0,1-2,1.86,3.14,3.14,0,0,1-2.7.9c-3-.91-4.71-4.34-8.35-4-.35,0-.6-1.1-.36-1.75.89-2.36-.4-3.12-2.43-3.35l-1.05-1.65a8.09,8.09,0,0,1,9.32-7.86c2.67.38,4.61-.68,6.65-1.87,1.31-.77,1.43-1.68-.16-2.21-2.14-.72-4.23-1.39-6.58-.31-3.37,1.54-6.62.65-9.46-1.43-2.42-1.77-2.44-4.12-.17-6.11A2,2,0,0,0,355,487c-1-2.17-.5-3.66,2.15-3.63,1.47,0,2-.42,2.3-1.93.51-2.64,2.91-3.72,5.45-2.5,3.21,1.54,5.44,4.06,5.63,7.73A7,7,0,0,0,372.2,491c0-2.25,0-4.49,0-6.7a9,9,0,0,1-1-8.18,5.39,5.39,0,0,1,.88-1.69c-.21-13.2-.86-25-2.18-33.59a17.58,17.58,0,0,1-4.38-7.54c-1.4-4.69-5-6.87-8.62-9.16-2.63-1.66-4.29-.59-3.87,2.49.59,4.24,1,8.57,4.85,11.59,5.21,4.13,6.73,9.88,6.37,16.23-.45,7.89-4.43,10.62-11.8,7.79-2.53-1-3.57.15-4.84,1.7-3.18,3.87-6.09,3.83-8.37-.8-1.29-2.62-2.71-3.08-5.64-2.2-5.43,1.64-8.32-1.6-8.81-6.6-.75-7.71,2-14.19,8.9-18.08,3.76-2.13,5.44-5.36,6.94-9,.52-1.24,1-2.58-.35-3.52s-2.45-.18-3.54.63c-3.13,2.32-5.78,4.7-7.09,8.82-2.27,7.12-7.64,11.34-15.12,12.48-1.89.29-4.13.56-5.61-.91-4.39-4.36-4.31-12.07-11.07-14.85-.66-.27,0-2.51,1-3.43,3.76-3.37,2.19-5.9-1.19-8.2-.11-1.3-.22-2.6-.34-3.9a16.22,16.22,0,0,1,23.84-5.25c4.38,3.16,8.79,3.09,13.5,2.88,3-.14,4.11-1.65,1.78-4.08-3.13-3.25-6.19-6.39-11.37-6.67-7.39-.39-12.32-5-15.42-11.33-2.62-5.38-.48-9.56,5.39-11,2.6-.62,3.53-1.76,3.62-4.37.17-4.81,2.52-7,7.17-4.43,2.6,1.4,4,1.13,5.89-1.28,3.34-4.2,8.59-3.88,12,.65,4.25,5.71,5.85,12.26,2.78,18.92-2.25,4.88-1.41,9.22.53,13.65a1.6,1.6,0,0,0,2.74.09c2.56-4.09,4-8.2,2.61-13.4-1.9-6.92.12-13.33,5.35-18.38,4.2-4.06,9-3.76,11.87.91,1.55,2.53,2.9,3.25,5.69,2.24,5-1.79,6.9.66,6.5,5.43-.22,2.51.49,3.67,3.06,4.59l-5.07-34s-10.4-5-23.54-10a3.07,3.07,0,0,0-.08,1.66c.43,2.79-1.39,4.69-4.27,4.45-3.77-.31-6.89-2-8.53-5.53-1-2.29-3-3.14-5.06-4-1.46-.66-2.23,0-1.79,1.55.61,2.11,1.16,4.28,3.33,5.54,2.95,1.72,4.15,4.54,4.43,7.8.35,4.05-1.47,5.74-5.44,4.83-1.35-.3-1.8.34-2.34,1.23-1.33,2.2-2.82,2.4-4.32.2-.84-1.24-1.6-1.36-3-.7-2.64,1.23-4.35-.21-5-2.72-.95-3.87,0-7.37,3.2-9.86a8.46,8.46,0,0,0,2.88-5.07c.17-.67.31-1.39-.44-1.76s-1.26.08-1.76.57a8.89,8.89,0,0,0-3,5,9.09,9.09,0,0,1-6.78,7.47,3.38,3.38,0,0,1-2.85,0c-4.51,9.44-11.15,20-20.22,26.49l.11.13c2.86,3.42,2.24,6.94-1.65,9-1.86,1-2.42,1.88-1.8,3.85,1.16,3.69-.27,5.55-4.16,4.92-2.24-.37-3.18.37-4.09,2.42-1.7,3.86-5.53,4.78-9,2.16-4.5-3.43-7.08-8.05-6.28-13.85a9.21,9.21,0,0,0-.72-5c-2.12-.3-4.34-.65-6.64-1.06a9.61,9.61,0,0,0,.44,7.1c2.34,4.54,1.58,9.06-.7,13.4-2.82,5.39-6.48,6-10.75,1.7-1.46-1.48-2.55-1-3.93-.35-3.47,1.7-5.49.75-5.61-3.22-.07-2.25-.93-3-3.26-3.33-4.33-.59-5.32-3.78-4.07-7.44,1.92-5.64,5.93-9.3,12-9.84a10.15,10.15,0,0,0,2.87-.7c-2-.46-4-.93-6-1.43-3.67,3.22-8.28,4.07-13.28,2.66-1.41-.4-3.07-.93-3.64-2.42a14.3,14.3,0,0,1-.68-4.89c-9.39-2.63-19-5.55-28.38-8.52a8.22,8.22,0,0,1-6,2c-2.42-.17-4.13,1-5.89,2.21a1.19,1.19,0,0,0-.62,1.36,1.29,1.29,0,0,0,1.29.8c2.07.08,4,0,5.82-1.4,3-2.3,6.43-2.37,9.79-.74,2.61,1.26,3.19,3.5,1.44,5.77-.83,1.07-.92,1.76,0,2.75,1.67,1.88,1.33,3.36-1.14,4-1.42.38-1.78,1.08-1.77,2.53,0,2.74-2,4.31-4.72,3.69-3.59-.83-6.35-2.86-7.43-6.51-.7-2.35-2.51-3.44-4.31-4.58-1.32-.83-2.15-.3-1.93,1.24.29,2.12.51,4.28,2.42,5.8,2.6,2.06,3.36,4.93,3.18,8.11-.22,3.94-2.21,5.31-5.9,3.89-1.26-.48-1.78.08-2.42.85-1.59,1.94-3,1.92-4.18-.4-.64-1.31-1.36-1.54-2.82-1.09-2.71.81-4.16-.81-4.4-3.31-.38-3.85,1-7.09,4.45-9a8.28,8.28,0,0,0,3.47-4.48c.25-.62.49-1.29-.18-1.76s-1.23-.09-1.77.31a8.68,8.68,0,0,0-3.55,4.41,8.8,8.8,0,0,1-7.55,6.24,3.17,3.17,0,0,1-2.81-.45c-2.19-2.18-2.15-6-5.53-7.43-.33-.13,0-1.25.5-1.71,1.88-1.69,1.09-2.95-.59-4.1-.06-.65-.12-1.3-.17-2a8.1,8.1,0,0,1,11.91-2.63c2.19,1.58,4.4,1.55,6.75,1.44,1.52-.07,2.06-.82.89-2-1.56-1.63-3.1-3.2-5.68-3.34-3.69-.2-6.16-2.49-7.71-5.66-1.31-2.69-.24-4.78,2.69-5.49a3.32,3.32,0,0,0,1.05-.43c-20-6.93-34.09-12.3-34.09-12.3s-3.53,2.41-8.74,6.07C119.86,344.74,120,344.89,120.07,345.05Zm170.82,134c2,1.08,3.06.87,4.53-1,2.58-3.23,6.62-3,9.22.5,3.27,4.4,4.51,9.44,2.14,14.57-1.73,3.76-1.08,7.1.41,10.51a1.24,1.24,0,0,0,2.11.07c2-3.15,3.11-6.32,2-10.32-1.46-5.33.09-10.26,4.12-14.15,3.23-3.13,6.93-2.89,9.14.7,1.19,1.95,2.23,2.5,4.38,1.73,3.84-1.38,5.31.51,5,4.17-.17,2,.38,2.85,2.41,3.56,4.13,1.46,5.24,4.92,2.91,8.73-2.88,4.72-7.17,7.57-12.82,7.19-3.72-.25-6.35,1.48-9.06,3.41a1.83,1.83,0,0,0-1,2.1,2,2,0,0,0,2,1.22c3.19.13,6.16,0,9-2.14,4.66-3.55,9.91-3.66,15.09-1.16,4,1.94,4.91,5.4,2.22,8.89-1.29,1.66-1.43,2.71-.05,4.25,2.58,2.89,2.06,5.17-1.75,6.2-2.19.59-2.75,1.66-2.72,3.9,0,4.21-3.07,6.64-7.27,5.67-5.53-1.26-9.79-4.4-11.45-10-1.08-3.61-3.86-5.29-6.64-7-2-1.28-3.3-.46-3,1.91.45,3.27.78,6.6,3.73,8.93,4,3.17,5.18,7.6,4.9,12.49-.34,6.08-3.41,8.18-9.09,6-1.94-.75-2.74.12-3.72,1.31-2.45,3-4.69,3-6.44-.62-1-2-2.09-2.37-4.35-1.69-4.18,1.26-6.4-1.23-6.78-5.08-.58-5.94,1.56-10.92,6.86-13.92,2.89-1.65,4.18-4.13,5.34-6.9.39-.95.75-2-.28-2.71s-1.88-.14-2.72.48c-2.41,1.79-4.45,3.62-5.46,6.8-1.74,5.48-5.88,8.73-11.64,9.61-1.45.22-3.18.42-4.32-.7-3.38-3.36-3.32-9.3-8.52-11.44-.51-.21,0-1.94.77-2.64,2.9-2.6,1.68-4.54-.92-6.31-.09-1-.17-2-.26-3a12.5,12.5,0,0,1,18.36-4c3.37,2.43,6.76,2.38,10.39,2.21,2.34-.1,3.17-1.26,1.37-3.13-2.41-2.5-4.77-4.93-8.75-5.14-5.69-.3-9.49-3.84-11.88-8.72-2-4.14-.37-7.36,4.15-8.46,2-.48,2.72-1.35,2.79-3.36C285.5,478.77,287.31,477.12,290.89,479.06Zm-44.08-29.62c2.25,1.62,4.52,1.59,6.95,1.48,1.56-.07,2.11-.85.91-2.1-1.61-1.67-3.18-3.29-5.85-3.43-3.8-.2-6.34-2.57-7.93-5.83-1.35-2.77-.25-4.92,2.77-5.65a2,2,0,0,0,1.86-2.25c.09-2.47,1.3-3.58,3.7-2.28,1.33.72,2,.58,3-.66,1.72-2.16,4.43-2,6.16.34,2.19,2.93,3,6.3,1.43,9.73-1.15,2.51-.72,4.75.28,7a.82.82,0,0,0,1.41.05c1.31-2.1,2.08-4.22,1.34-6.89a9.24,9.24,0,0,1,2.75-9.46c2.16-2.09,4.63-1.93,6.11.47.8,1.3,1.49,1.67,2.93,1.15,2.56-.92,3.55.34,3.34,2.79-.11,1.31.26,1.9,1.61,2.38,2.76,1,3.5,3.29,1.95,5.83-1.93,3.16-4.8,5.06-8.57,4.81-2.49-.17-4.24,1-6.06,2.28a1.22,1.22,0,0,0-.64,1.4,1.34,1.34,0,0,0,1.33.82c2.13.08,4.12,0,6-1.44,3.11-2.37,6.62-2.44,10.08-.77,2.69,1.3,3.29,3.61,1.48,5.94-.85,1.11-1,1.81,0,2.84,1.73,1.93,1.38,3.46-1.16,4.14-1.47.4-1.84,1.11-1.82,2.61,0,2.82-2,4.44-4.87,3.79-3.69-.84-6.53-2.94-7.65-6.69-.71-2.42-2.57-3.54-4.43-4.72-1.35-.85-2.21-.3-2,1.28.3,2.18.53,4.41,2.5,6,2.68,2.12,3.46,5.08,3.27,8.35-.23,4.06-2.28,5.46-6.07,4-1.3-.5-1.84.07-2.49.87-1.64,2-3.13,2-4.31-.41-.66-1.35-1.39-1.59-2.9-1.13-2.79.84-4.28-.83-4.53-3.4-.39-4,1-7.3,4.58-9.3a8.48,8.48,0,0,0,3.57-4.62c.26-.63.5-1.32-.18-1.8s-1.26-.1-1.82.32a8.88,8.88,0,0,0-3.65,4.54,9.07,9.07,0,0,1-7.78,6.42c-1,.15-2.13.29-2.89-.47-2.26-2.24-2.21-6.21-5.69-7.64-.34-.14,0-1.29.51-1.77,1.94-1.73,1.13-3-.61-4.21l-.17-2A8.34,8.34,0,0,1,246.81,449.44Zm-24.92,48.8c2.16-2.09,4.63-1.94,6.11.47.8,1.3,1.49,1.67,2.93,1.15,2.56-.92,3.55.34,3.34,2.79-.11,1.31.25,1.9,1.61,2.38,2.76,1,3.5,3.29,2,5.83-1.93,3.16-4.8,5.06-8.57,4.81-2.49-.17-4.24,1-6.06,2.27a1.22,1.22,0,0,0-.64,1.41,1.35,1.35,0,0,0,1.33.82c2.13.08,4.12,0,6-1.44,3.11-2.37,6.62-2.44,10.08-.77,2.69,1.3,3.29,3.61,1.48,5.94-.85,1.11-.95,1.81,0,2.84,1.73,1.93,1.38,3.46-1.17,4.14-1.46.4-1.83,1.11-1.82,2.61,0,2.82-2,4.44-4.86,3.79-3.69-.84-6.53-2.94-7.65-6.69-.71-2.42-2.57-3.54-4.43-4.72-1.36-.85-2.21-.3-2,1.28.3,2.18.53,4.41,2.5,6,2.67,2.12,3.46,5.08,3.27,8.34-.23,4.06-2.28,5.47-6.07,4-1.3-.5-1.84.08-2.49.88-1.64,2-3.14,2-4.31-.42-.66-1.34-1.39-1.58-2.9-1.12-2.79.84-4.28-.83-4.53-3.4-.39-4,1-7.3,4.58-9.31a8.47,8.47,0,0,0,3.57-4.61c.26-.63.5-1.32-.18-1.8s-1.27-.1-1.82.32a8.8,8.8,0,0,0-3.65,4.54,9.09,9.09,0,0,1-7.78,6.42c-1,.15-2.13.29-2.89-.47-2.26-2.24-2.22-6.21-5.7-7.64-.33-.14,0-1.29.52-1.77,1.94-1.73,1.13-3-.61-4.21l-.18-2a8.35,8.35,0,0,1,12.27-2.7c2.25,1.62,4.52,1.59,6.95,1.48,1.56-.08,2.11-.85.91-2.1-1.61-1.67-3.19-3.29-5.85-3.43-3.8-.21-6.34-2.57-7.93-5.83-1.35-2.77-.25-4.92,2.77-5.65a2,2,0,0,0,1.86-2.25c.09-2.48,1.3-3.58,3.69-2.28,1.34.72,2,.58,3-.66,1.72-2.16,4.42-2,6.16.33,2.19,2.94,3,6.31,1.43,9.74-1.16,2.51-.72,4.74.28,7a.82.82,0,0,0,1.41.05c1.31-2.11,2.08-4.22,1.34-6.89A9.24,9.24,0,0,1,221.89,498.24Z"/><path class="cls-44" d="M177.91,486.89c2-1.32,3.1-1.31,4.65.33,2.73,2.89,4.87,2.25,6.33-1.32.59-1.42,1.1-2.48,3.18-2.34,6.06.4,8.37-2.52,6.91-8.42-1.18-4.75-3.61-8.64-8.38-10.49-3.5-1.35-4.8-4.44-6.2-7.42-1-2.17,0-3.34,2.28-2.71,3.18.86,6.33,1.64,8.42,4.78,3.25,4.87,8.25,6.61,13.9,6.19,4.3-.32,6.56-3.56,5.27-7.57-.68-2.13-.47-3.32,1.45-4.53,3.33-2.11,3.16-4.44-.16-6.44-1.77-1.06-1.95-2.1-1.21-4.07,1.54-4.13-.33-7.17-4.74-7.84-5.69-.85-10.68.79-14.07,5.56-2,2.87-4.85,3.88-7.93,4.7a2,2,0,0,1-2.27-.59,1.81,1.81,0,0,1,.3-2.28c2-2.65,4-5.07,7.65-5.94,5.5-1.3,8.77-5.29,10.12-10.65,1.1-4.33-1-7.31-5.35-7.48-2.15-.09-2.94-.78-3.36-2.69-.78-3.6-2.75-5-6-2.51-1.82,1.37-3,1.15-4.7-.35-3.17-2.79-6.77-1.92-8.93,2-2.7,4.91-2.73,10.08.24,14.74,2.24,3.5,2.08,6.86,1.13,10.45a1.24,1.24,0,0,1-2,.56c-2.43-2.82-4-5.82-3.49-9.92.74-5.6-1.93-10.06-6.35-13.29-3.51-2.56-7.45-1.6-9,2.24-.81,2.06-1.7,2.64-3.61,2.35a153.6,153.6,0,0,1,10.44,22.93,20.81,20.81,0,0,1,5.52,2.39c2.27,1.25,1.82,2.6-.38,3.4-1,.35-1.95.68-2.92.95a106.54,106.54,0,0,1,3.83,18.2,15.79,15.79,0,0,0,.22-2.43c0-3.33,1.44-5.68,3.21-8.1.62-.84,1.33-1.63,2.46-1.26s1.16,1.47,1.06,2.5c-.29,3-.78,5.74-3.07,8.17a13.63,13.63,0,0,0-3.45,6.23q.17,3.06.06,6.14a18.09,18.09,0,0,0,1,2.95C171.42,487.6,174.29,489.32,177.91,486.89Z"/><path class="cls-44" d="M352.59,579.62c5.5-1.3,8.77-5.29,10.12-10.65,1.1-4.33-1-7.31-5.35-7.48-2.15-.09-2.94-.78-3.36-2.69-.78-3.6-2.75-5-6-2.51-1.82,1.37-3,1.15-4.7-.36-3.17-2.78-6.77-1.91-8.93,2-2.7,4.9-2.73,10.08.24,14.74,2.24,3.49,2.08,6.85,1.13,10.44a1.23,1.23,0,0,1-2,.56c-2.43-2.82-4-5.81-3.49-9.92.74-5.6-1.93-10-6.35-13.28-3.51-2.57-7.45-1.61-9,2.24-.87,2.21-1.81,2.72-4,2.28-4-.79-5.24,1.31-4.27,4.89.52,1.94.1,3-1.67,4-4,2.38-4.62,5.94-1.47,9.3,3.72,4,8.4,6.22,13.92,4.83a9.29,9.29,0,0,1,4.75,0L344.67,586a3.51,3.51,0,0,1,.27-.4C347,582.91,349,580.48,352.59,579.62Z"/><path class="cls-44" d="M354.83,583.73a10.48,10.48,0,0,1-1.18,1.36l14.57-1.4s.15-2,.39-5.56C363,577.38,358.17,579.05,354.83,583.73Z"/><path class="cls-44" d="M282.58,485.83c-4.52,1.1-6.17,4.32-4.15,8.46,2.39,4.88,6.19,8.42,11.88,8.72,4,.21,6.34,2.64,8.75,5.14,1.8,1.87,1,3-1.37,3.13-3.63.17-7,.22-10.39-2.21a12.5,12.5,0,0,0-18.36,4c.09,1,.17,2,.26,3,2.6,1.77,3.82,3.71.92,6.31-.8.7-1.28,2.43-.77,2.64,5.2,2.14,5.14,8.08,8.52,11.44,1.14,1.12,2.87.92,4.32.7,5.76-.88,9.9-4.13,11.64-9.61,1-3.18,3.05-5,5.46-6.8.84-.62,1.75-1.16,2.72-.48s.67,1.76.28,2.71c-1.16,2.77-2.45,5.25-5.34,6.9-5.3,3-7.44,8-6.86,13.92.38,3.85,2.6,6.34,6.78,5.08,2.26-.68,3.36-.33,4.35,1.69,1.75,3.57,4,3.6,6.44.62,1-1.19,1.78-2.06,3.72-1.31,5.68,2.18,8.75.08,9.09-6,.28-4.89-.89-9.32-4.9-12.49-2.95-2.33-3.28-5.66-3.73-8.93-.33-2.37,1-3.19,3-1.91,2.78,1.76,5.56,3.44,6.64,7,1.66,5.62,5.92,8.76,11.45,10,4.2,1,7.31-1.46,7.27-5.67,0-2.24.53-3.31,2.72-3.9,3.81-1,4.33-3.31,1.75-6.2-1.38-1.54-1.24-2.59.05-4.25,2.69-3.49,1.8-6.95-2.22-8.89-5.18-2.5-10.43-2.39-15.09,1.16-2.8,2.13-5.77,2.27-9,2.14a2,2,0,0,1-2-1.22,1.83,1.83,0,0,1,1-2.1c2.71-1.93,5.34-3.66,9.06-3.41,5.65.38,9.94-2.47,12.82-7.19,2.33-3.81,1.22-7.27-2.91-8.73-2-.71-2.58-1.6-2.41-3.56.31-3.66-1.16-5.55-5-4.17-2.15.77-3.19.22-4.38-1.73-2.21-3.59-5.91-3.83-9.14-.7-4,3.89-5.58,8.82-4.12,14.15,1.1,4,0,7.17-2,10.32a1.24,1.24,0,0,1-2.11-.07c-1.49-3.41-2.14-6.75-.41-10.51,2.37-5.13,1.13-10.17-2.14-14.57-2.6-3.49-6.64-3.73-9.22-.5-1.47,1.86-2.53,2.07-4.53,1-3.58-1.94-5.39-.29-5.52,3.41C285.3,484.48,284.58,485.35,282.58,485.83Z"/><path class="cls-44" d="M123.82,539.41c4.73,1.28,9,.18,12.21-3.45,1.86-2.11,4.05-2.83,6.51-3.39.85-.19,1.74-.3,2.26.55s-.08,1.58-.7,2.18c-1.84,1.74-3.67,3.22-6.45,3.5-5.1.52-8.43,3.64-10,8.4-1,3.1-.15,5.77,3.5,6.22,2,.24,2.69.88,2.77,2.77.14,3.34,1.86,4.12,4.75,2.65,1.16-.58,2.07-1,3.31.26,3.64,3.6,6.71,3,9-1.55,1.87-3.67,2.47-7.48.46-11.28-1.48-2.79-.62-5.47.14-8.13.55-1.94,1.81-2.14,2.94-.47,1.55,2.29,3.12,4.53,2.72,7.68-.61,4.89,1.6,8.74,5.43,11.59,2.91,2.16,6.13,1.35,7.52-1.91.74-1.74,1.53-2.37,3.42-2.08,3.28.49,4.45-1.09,3.44-4.18-.54-1.66-.08-2.42,1.47-3.26,3.26-1.77,3.74-4.74,1.31-7.6-3.15-3.67-7.22-5.37-12-4.21-2.88.69-5.22-.21-7.63-1.38a1.72,1.72,0,0,1-1.12-1.62c.06-.79.73-1.15,1.45-1.29,2.75-.57,5.35-1,8.14.44,4.21,2.2,8.48,1.46,12.3-1.2,3.08-2.15,3.4-5.19.71-7.71-1.32-1.23-1.44-2.1-.65-3.55,1.48-2.72,1-4.67-2.44-4.91-1.91-.13-2.53-.91-2.79-2.81-.48-3.52-3.25-4.95-6.8-3.64a11.66,11.66,0,0,0-8,9.51c-.5,3.45-2.45,5.5-5,7.26a1,1,0,0,1-1.6-.77c0-3.13.64-5.92,3.24-8.23a10.58,10.58,0,0,0,3.36-5.44,51.64,51.64,0,0,1-14.33,14.58c.61,1.88-.4,2.44-2.17,1.76l-.32-.12a86.63,86.63,0,0,1-23.34,9.78h-.72a9.82,9.82,0,0,0,.58,3C121.22,538.67,122.63,539.09,123.82,539.41Z"/><path class="cls-44" d="M158.84,356.74c1.55,3.17,4,5.46,7.71,5.66,2.58.14,4.12,1.71,5.68,3.34,1.17,1.21.63,2-.89,2-2.35.11-4.56.14-6.75-1.44A8.1,8.1,0,0,0,152.68,369c0,.65.11,1.3.17,2,1.68,1.15,2.47,2.41.59,4.1-.52.46-.83,1.58-.5,1.71,3.38,1.39,3.34,5.25,5.53,7.43a3.17,3.17,0,0,0,2.81.45,8.8,8.8,0,0,0,7.55-6.24,8.68,8.68,0,0,1,3.55-4.41c.54-.4,1.14-.75,1.77-.31s.43,1.14.18,1.76a8.28,8.28,0,0,1-3.47,4.48c-3.44,1.94-4.83,5.18-4.45,9,.24,2.5,1.69,4.12,4.4,3.31,1.46-.45,2.18-.22,2.82,1.09,1.14,2.32,2.59,2.34,4.18.4.64-.77,1.16-1.33,2.42-.85,3.69,1.42,5.68.05,5.9-3.89.18-3.18-.58-6.05-3.18-8.11-1.91-1.52-2.13-3.68-2.42-5.8-.22-1.54.61-2.07,1.93-1.24,1.8,1.14,3.61,2.23,4.31,4.58,1.08,3.65,3.84,5.68,7.43,6.51,2.73.62,4.75-1,4.72-3.69,0-1.45.35-2.15,1.77-2.53,2.47-.67,2.81-2.15,1.14-4-.9-1-.81-1.68,0-2.75,1.75-2.27,1.17-4.51-1.44-5.77-3.36-1.63-6.77-1.56-9.79.74-1.82,1.39-3.75,1.48-5.82,1.4a1.29,1.29,0,0,1-1.29-.8,1.19,1.19,0,0,1,.62-1.36c1.76-1.25,3.47-2.38,5.89-2.21a8.22,8.22,0,0,0,6-2c-5.36-1.7-10.62-3.42-15.71-5.11a8.1,8.1,0,0,1-1.45,6,.8.8,0,0,1-1.37-.05c-1-2.21-1.39-4.38-.26-6.82,0-.05,0-.1.05-.15-5.15-1.73-10.09-3.41-14.72-5a3.32,3.32,0,0,1-1.05.43C158.6,352,157.53,354.05,158.84,356.74Z"/><path class="cls-44" d="M372.23,484.28c0-3.35,0-6.65-.08-9.87a5.39,5.39,0,0,0-.88,1.69A9,9,0,0,0,372.23,484.28Z"/><path class="cls-44" d="M364.86,479c-2.54-1.22-4.94-.14-5.45,2.5-.28,1.51-.83,1.95-2.3,1.93-2.65,0-3.19,1.46-2.15,3.63a2,2,0,0,1-.58,2.78c-2.27,2-2.25,4.34.17,6.11,2.84,2.08,6.09,3,9.46,1.43,2.35-1.08,4.44-.41,6.58.31,1.59.53,1.47,1.44.16,2.21-2,1.19-4,2.25-6.65,1.87a8.09,8.09,0,0,0-9.32,7.86l1.05,1.65c2,.23,3.32,1,2.43,3.35-.24.65,0,1.79.36,1.75,3.64-.34,5.4,3.09,8.35,4a3.14,3.14,0,0,0,2.7-.9,11,11,0,0,0,2-1.86c.28-8.81.49-17.83.55-26.61a7,7,0,0,1-1.71-4.28C370.3,483,368.07,480.51,364.86,479Z"/><path class="cls-44" d="M233.2,387.1c-1.25,3.66-.26,6.85,4.07,7.44,2.33.31,3.19,1.08,3.26,3.33.12,4,2.14,4.92,5.61,3.22,1.38-.68,2.47-1.13,3.93.35,4.27,4.34,7.93,3.69,10.75-1.7,2.28-4.34,3-8.86.7-13.4a9.61,9.61,0,0,1-.44-7.1c-4.1-.74-8.47-1.64-13-2.68a10.15,10.15,0,0,1-2.87.7C239.13,377.8,235.12,381.46,233.2,387.1Z"/><path class="cls-44" d="M268.44,385.32c-.8,5.8,1.78,10.42,6.28,13.85,3.44,2.62,7.27,1.7,9-2.16.91-2.05,1.85-2.79,4.09-2.42,3.89.63,5.32-1.23,4.16-4.92-.62-2-.06-2.87,1.8-3.85,3.89-2.07,4.51-5.59,1.65-9l-.11-.13a36.36,36.36,0,0,1-4.91,3c-4.22,2.12-12.29,2.08-22.65.63A9.21,9.21,0,0,1,268.44,385.32Z"/><path class="cls-44" d="M228.74,377.79c5,1.41,9.61.56,13.28-2.66-5.68-1.39-11.59-3-17.6-4.65a14.3,14.3,0,0,0,.68,4.89C225.67,376.86,227.33,377.39,228.74,377.79Z"/><path class="cls-44" d="M381.83,379c.4-4.77-1.51-7.22-6.5-5.43-2.79,1-4.14.29-5.69-2.24-2.87-4.67-7.67-5-11.87-.91-5.23,5.05-7.25,11.46-5.35,18.38,1.43,5.2-.05,9.31-2.61,13.4a1.6,1.6,0,0,1-2.74-.09c-1.94-4.43-2.78-8.77-.53-13.65,3.07-6.66,1.47-13.21-2.78-18.92-3.38-4.53-8.63-4.85-12-.65-1.92,2.41-3.29,2.68-5.89,1.28-4.65-2.52-7-.38-7.17,4.43-.09,2.61-1,3.75-3.62,4.37-5.87,1.42-8,5.6-5.39,11,3.1,6.34,8,10.94,15.42,11.33,5.18.28,8.24,3.42,11.37,6.67,2.33,2.43,1.26,3.94-1.78,4.08-4.71.21-9.12.28-13.5-2.88a16.22,16.22,0,0,0-23.84,5.25c.12,1.3.23,2.6.34,3.9,3.38,2.3,4.95,4.83,1.19,8.2-1,.92-1.66,3.16-1,3.43,6.76,2.78,6.68,10.49,11.07,14.85,1.48,1.47,3.72,1.2,5.61.91,7.48-1.14,12.85-5.36,15.12-12.48,1.31-4.12,4-6.5,7.09-8.82,1.09-.81,2.27-1.51,3.54-.63s.87,2.28.35,3.52c-1.5,3.6-3.18,6.83-6.94,9-6.87,3.89-9.65,10.37-8.9,18.08.49,5,3.38,8.24,8.81,6.6,2.93-.88,4.35-.42,5.64,2.2,2.28,4.63,5.19,4.67,8.37.8,1.27-1.55,2.31-2.67,4.84-1.7,7.37,2.83,11.35.1,11.8-7.79.36-6.35-1.16-12.1-6.37-16.23-3.82-3-4.26-7.35-4.85-11.59-.42-3.08,1.24-4.15,3.87-2.49,3.61,2.29,7.22,4.47,8.62,9.16a17.58,17.58,0,0,0,4.38,7.54c-1.09-7-2.62-11.88-4.74-13.54h26.18l-3-20.17a17.08,17.08,0,0,0-15.1,3.14c-3.64,2.77-7.5,2.95-11.64,2.79a2.62,2.62,0,0,1-2.59-1.6c-.4-1.15.32-2.06,1.24-2.72,3.53-2.51,6.94-4.75,11.78-4.43a16.86,16.86,0,0,0,14.87-6.8l-2.07-13.9C382.32,382.67,381.61,381.51,381.83,379Z"/><path class="cls-44" d="M143.87,407.58c4.94-1.34,5.63-4.3,2.27-8.05-1.79-2-1.61-3.36.06-5.52,3.5-4.53,2.34-9-2.88-11.54-6.73-3.25-13.55-3.11-19.59,1.5-3.64,2.77-7.5,2.95-11.64,2.79a2.63,2.63,0,0,1-2.59-1.6c-.4-1.15.32-2.07,1.25-2.72,3.52-2.51,6.93-4.75,11.77-4.43,7.33.49,12.91-3.2,16.65-9.34,3-4.95,1.58-9.45-3.78-11.34-2.64-.92-3.35-2.08-3.13-4.61.41-4.77-1.51-7.22-6.49-5.43-2.8,1-4.15.29-5.7-2.24-.1-.16-.21-.31-.32-.46-4.9,3.44-11.28,8-17.59,12.66a18.7,18.7,0,0,0,.7,5.27c1.42,5.2-.06,9.3-2.61,13.39a1.61,1.61,0,0,1-2.75-.08c-1.94-4.43-2.78-8.77-.53-13.65.23-.5.43-1,.61-1.49-7.73,5.85-14.75,11.55-18,15.19,3,1.21,5.17,3.47,7.4,5.79s1.26,3.93-1.78,4.07l-.73,0a197.42,197.42,0,0,0,20,11.48c.69-.38,1.73-.22,3,.58a37.84,37.84,0,0,1,4.76,3.34c10.27,5.08,20.72,9.87,28,13.15a9.09,9.09,0,0,0,.13-1.68C140.3,409.74,141,408.35,143.87,407.58Z"/><path class="cls-44" d="M135.15,581.4c-2.8,1-4.15.29-5.7-2.24-2.86-4.67-7.66-5-11.87-.91-.11.1-.21.21-.31.32l.26,6.45,24.1,2.1c0-.1,0-.19,0-.3C142.05,582.06,140.13,579.61,135.15,581.4Z"/><path class="cls-44" d="M235.33,458.36c-.53.48-.85,1.63-.51,1.77,3.48,1.43,3.43,5.4,5.69,7.64.76.76,1.92.62,2.89.47a9.07,9.07,0,0,0,7.78-6.42,8.88,8.88,0,0,1,3.65-4.54c.56-.42,1.17-.78,1.82-.32s.44,1.17.18,1.8a8.48,8.48,0,0,1-3.57,4.62c-3.54,2-5,5.33-4.58,9.3.25,2.57,1.74,4.24,4.53,3.4,1.51-.46,2.24-.22,2.9,1.13,1.18,2.38,2.67,2.4,4.31.41.65-.8,1.19-1.37,2.49-.87,3.79,1.45,5.84.05,6.07-4,.19-3.27-.59-6.23-3.27-8.35-2-1.56-2.2-3.79-2.5-6-.22-1.58.64-2.13,2-1.28,1.86,1.18,3.72,2.3,4.43,4.72,1.12,3.75,4,5.85,7.65,6.69,2.82.65,4.9-1,4.87-3.79,0-1.5.35-2.21,1.82-2.61,2.54-.68,2.89-2.21,1.16-4.14-.92-1-.82-1.73,0-2.84,1.81-2.33,1.21-4.64-1.48-5.94-3.46-1.67-7-1.6-10.08.77-1.87,1.43-3.86,1.52-6,1.44a1.34,1.34,0,0,1-1.33-.82,1.22,1.22,0,0,1,.64-1.4c1.82-1.29,3.57-2.45,6.06-2.28,3.77.25,6.64-1.65,8.57-4.81,1.55-2.54.81-4.86-1.95-5.83-1.35-.48-1.72-1.07-1.61-2.38.21-2.45-.78-3.71-3.34-2.79-1.44.52-2.13.15-2.93-1.15-1.48-2.4-4-2.56-6.11-.47a9.24,9.24,0,0,0-2.75,9.46c.74,2.67,0,4.79-1.34,6.89a.82.82,0,0,1-1.41-.05c-1-2.27-1.43-4.51-.28-7,1.58-3.43.76-6.8-1.43-9.73-1.73-2.33-4.44-2.5-6.16-.34-1,1.24-1.69,1.38-3,.66-2.4-1.3-3.61-.19-3.7,2.28a2,2,0,0,1-1.86,2.25c-3,.73-4.12,2.88-2.77,5.65,1.59,3.26,4.13,5.63,7.93,5.83,2.67.14,4.24,1.76,5.85,3.43,1.2,1.25.65,2-.91,2.1-2.43.11-4.7.14-6.95-1.48a8.34,8.34,0,0,0-12.26,2.7l.17,2C236.46,455.33,237.27,456.63,235.33,458.36Z"/><path class="cls-44" d="M318.35,350.2a9.09,9.09,0,0,0,6.78-7.47,8.89,8.89,0,0,1,3-5c.5-.49,1.05-.93,1.76-.57s.61,1.09.44,1.76a8.46,8.46,0,0,1-2.88,5.07c-3.21,2.49-4.15,6-3.2,9.86.62,2.51,2.33,3.95,5,2.72,1.43-.66,2.19-.54,3,.7,1.5,2.2,3,2,4.32-.2.54-.89,1-1.53,2.34-1.23,4,.91,5.79-.78,5.44-4.83-.28-3.26-1.48-6.08-4.43-7.8-2.17-1.26-2.72-3.43-3.33-5.54-.44-1.54.33-2.21,1.79-1.55,2,.89,4,1.74,5.06,4,1.64,3.55,4.76,5.22,8.53,5.53,2.88.24,4.7-1.66,4.27-4.45a3.07,3.07,0,0,1,.08-1.66,198.07,198.07,0,0,0-28.75-9c0,.47-.52.82-1.4,1a17,17,0,0,1-3.66.41,126,126,0,0,1-7,18.21A3.38,3.38,0,0,0,318.35,350.2Z"/><path class="cls-44" d="M200.89,583.28c2.05-4.44,1-8.81-1.86-12.62-2.25-3-5.75-3.23-8-.43-1.28,1.61-2.2,1.79-3.93.85-3.1-1.68-4.67-.25-4.78,3-.06,1.74-.68,2.5-2.42,2.92-3.91.94-5.34,3.73-3.59,7.32a13.55,13.55,0,0,0,5.81,6.37l19.07,1.66C199.94,589.39,199.4,586.51,200.89,583.28Z"/><path class="cls-44" d="M229,587.62c2-3.3,1.05-6.31-2.53-7.57-1.75-.61-2.23-1.39-2.08-3.08.27-3.18-1-4.81-4.33-3.62-1.87.68-2.77.2-3.8-1.49-1.92-3.12-5.12-3.32-7.92-.61a12,12,0,0,0-3.57,12.26c1,3.47,0,6.21-1.74,8.94l0,0,16,1.4C223.39,593.78,226.73,591.39,229,587.62Z"/><path class="cls-44" d="M217.8,514.59a.82.82,0,0,1-1.41-.05c-1-2.28-1.44-4.51-.28-7,1.58-3.43.76-6.8-1.43-9.74-1.74-2.33-4.44-2.49-6.16-.33-1,1.24-1.69,1.38-3,.66-2.39-1.3-3.6-.2-3.69,2.28a2,2,0,0,1-1.86,2.25c-3,.73-4.12,2.88-2.77,5.65,1.59,3.26,4.13,5.62,7.93,5.83,2.66.14,4.24,1.76,5.85,3.43,1.2,1.25.65,2-.91,2.1-2.43.11-4.7.14-6.95-1.48a8.35,8.35,0,0,0-12.27,2.7l.18,2c1.74,1.18,2.55,2.48.61,4.21-.53.48-.85,1.63-.52,1.77,3.48,1.43,3.44,5.4,5.7,7.64.76.76,1.92.62,2.89.47a9.09,9.09,0,0,0,7.78-6.42,8.8,8.8,0,0,1,3.65-4.54c.55-.42,1.17-.78,1.82-.32s.44,1.17.18,1.8a8.47,8.47,0,0,1-3.57,4.61c-3.54,2-5,5.34-4.58,9.31.25,2.57,1.74,4.24,4.53,3.4,1.51-.46,2.24-.22,2.9,1.12,1.17,2.39,2.67,2.41,4.31.42.65-.8,1.19-1.38,2.49-.88,3.79,1.46,5.84,0,6.07-4,.19-3.26-.6-6.22-3.27-8.34-2-1.56-2.2-3.79-2.5-6-.22-1.58.63-2.13,2-1.28,1.86,1.18,3.72,2.3,4.43,4.72,1.12,3.75,4,5.85,7.65,6.69,2.82.65,4.89-1,4.86-3.79,0-1.5.36-2.21,1.82-2.61,2.55-.68,2.9-2.21,1.17-4.14-.92-1-.82-1.73,0-2.84,1.81-2.33,1.21-4.64-1.48-5.94-3.46-1.67-7-1.6-10.08.77-1.87,1.43-3.86,1.52-6,1.44a1.35,1.35,0,0,1-1.33-.82,1.22,1.22,0,0,1,.64-1.41c1.82-1.29,3.57-2.44,6.06-2.27,3.77.25,6.64-1.65,8.57-4.81,1.55-2.54.81-4.86-2-5.83-1.36-.48-1.72-1.07-1.61-2.38.21-2.45-.78-3.71-3.34-2.79-1.44.52-2.13.15-2.93-1.15-1.48-2.41-3.95-2.56-6.11-.47a9.24,9.24,0,0,0-2.75,9.46C219.88,510.37,219.11,512.48,217.8,514.59Z"/><path class="cls-44" d="M268.86,591c.34-1,.64-1.7,2-1.68,4.06.06,5.5-2,4.31-5.85-.95-3.13-2.7-5.64-5.95-6.71-2.38-.79-3.36-2.8-4.4-4.74-.75-1.41-.14-2.22,1.43-1.89,2.15.46,4.28.88,5.79,2.9,2.34,3.14,5.73,4.13,9.49,3.65,2.86-.37,4.25-2.61,3.25-5.24-.53-1.4-.43-2.2.81-3.07,2.15-1.52,2-3.08-.33-4.29-1.22-.65-1.37-1.34-.95-2.68.89-2.81-.47-4.77-3.44-5.06-3.83-.38-7.09.9-9.2,4.19-1.26,2-3.1,2.76-5.12,3.42a1.36,1.36,0,0,1-1.54-.32,1.21,1.21,0,0,1,.12-1.53c1.26-1.84,2.51-3.53,4.9-4.23,3.63-1.06,5.67-3.83,6.39-7.46.58-2.93-.92-4.85-3.84-4.81-1.44,0-2-.41-2.33-1.67-.65-2.38-2-3.22-4.1-1.47-1.17,1-1.95.87-3.15-.07-2.21-1.75-4.58-1-5.89,1.66a9.24,9.24,0,0,0,.68,9.83c1.61,2.25,1.62,4.5,1.11,6.93a.82.82,0,0,1-1.34.44c-1.72-1.79-2.9-3.74-2.68-6.49.31-3.77-1.63-6.64-4.7-8.65-2.43-1.59-5-.81-5.89,1.81-.5,1.51-1.12,1.88-2.62,1.66-2.69-.39-3.45,1.06-2.68,3.42a2,2,0,0,1-1,2.75c-2.58,1.73-2.88,4.13-.66,6.26,2.62,2.51,5.82,3.86,9.46,2.74,2.55-.79,4.59.19,6.68,1.2,1.56.76,1.3,1.68-.14,2.28a11.17,11.17,0,0,1-5.79,1.24l7.13,9.09a9.56,9.56,0,0,1,1.86-4.72c.38-.59.83-1.13,1.59-.93s.83.94.8,1.63a8.47,8.47,0,0,1-1.76,5.56c-.23.27-.43.55-.63.82l9.54,12.16C267.33,593.52,268.24,592.79,268.86,591Z"/><path class="cls-44" d="M235.79,576l.85,1.83c2,.51,3.25,1.45,2,3.75-.33.62-.24,1.82.13,1.83a5.82,5.82,0,0,1,.73.08l6.1-14.41A8.31,8.31,0,0,0,235.79,576Z"/><path class="cls-42" d="M127.13,339.29l90.45,78.77,62.88-34.9,33.28,28.3S340.3,337.24,329,326.23l-10.48,6.08-38,46.63L134.38,339.4Z"/><path class="cls-43" d="M231.15,366.91c.23-.38.44-.76.64-1.14l-2.71-.74a13.36,13.36,0,0,0,.65,1.83A.83.83,0,0,0,231.15,366.91Z"/><path class="cls-43" d="M235.91,371.67a1.35,1.35,0,0,0,1.33.82c2.13.08,4.12,0,6-1.44A9.34,9.34,0,0,1,246,369.6l-5.33-1.45a11.9,11.9,0,0,0-4.07,2.11A1.22,1.22,0,0,0,235.91,371.67Z"/><path class="cls-43" d="M322.73,347.66c.59,4.24,1,8.56,4.85,11.59.39.31.75.63,1.09.95.91-4.19,1.67-8.27,2.21-12.09a44.9,44.9,0,0,0-4.28-2.94C324,343.51,322.3,344.58,322.73,347.66Z"/><path class="cls-43" d="M328.7,332.49a2.61,2.61,0,0,0,2.59,1.6h.38a19.57,19.57,0,0,0-.94-4.89l-.79.55C329,330.42,328.29,331.34,328.7,332.49Z"/><path class="cls-43" d="M142.77,341.67l-6.9-1.86a13.25,13.25,0,0,1,4.72,11.2l6.11,5.32a10.81,10.81,0,0,0-1.77-5.71A13.49,13.49,0,0,1,142.77,341.67Z"/><path class="cls-43" d="M162.92,357.54c-3.64.86-5.63,3.29-7.66,5.93l-.13.2,2.83,2.47c2.8-.79,5.32-1.86,7.2-4.49,3.4-4.77,8.38-6.42,14.07-5.56,4.42.67,6.29,3.71,4.75,7.84-.74,2-.56,3,1.21,4.07,3.32,2,3.49,4.33.16,6.44-1.92,1.21-2.14,2.39-1.45,4.53,1,3.25-.24,6-3.06,7.09l36.74,32,62.88-34.9,33.28,28.3s4.47-12.5,9-28l-.56-.19c-2.52-1-3.56.15-4.84,1.7-3.18,3.86-6.09,3.83-8.36-.81-1.29-2.62-2.72-3.07-5.64-2.19-5.43,1.63-8.32-1.61-8.81-6.61-.76-7.7,2-14.18,8.9-18.08,3.76-2.13,5.43-5.35,6.94-9,.51-1.23,1-2.57-.36-3.51a2.06,2.06,0,0,0-1.35-.4l-10.56,12.94a16.8,16.8,0,0,1-4.51,5.54l-13.09,16.05-25-6.77a3.64,3.64,0,0,1-.67,4.05c-.86,1.11-.95,1.81,0,2.84,1.73,1.93,1.37,3.45-1.17,4.14-1.46.4-1.83,1.11-1.82,2.61,0,2.81-2.05,4.44-4.86,3.79-3.69-.84-6.53-2.94-7.65-6.7-.72-2.41-2.57-3.53-4.43-4.71-1.36-.86-2.21-.31-2,1.28.3,2.18.53,4.41,2.49,6,2.68,2.12,3.46,5.08,3.28,8.34-.23,4.06-2.28,5.47-6.07,4-1.3-.5-1.84.08-2.49.88-1.64,2-3.14,2-4.31-.42-.66-1.34-1.4-1.58-2.9-1.12-2.79.84-4.28-.83-4.53-3.4-.39-4,1-7.3,4.58-9.31a8.47,8.47,0,0,0,3.57-4.61c.26-.63.5-1.32-.19-1.8s-1.26-.1-1.82.32a8.85,8.85,0,0,0-3.65,4.54,9.08,9.08,0,0,1-7.78,6.42,3.26,3.26,0,0,1-2.88-.47c-2.26-2.24-2.22-6.21-5.7-7.64-.34-.14,0-1.3.52-1.77,1.93-1.73,1.12-3-.61-4.21l-.18-2a8.36,8.36,0,0,1,12.27-2.71c2.25,1.63,4.52,1.6,6.95,1.49,1.56-.08,2.11-.85.91-2.1-1.61-1.67-3.19-3.29-5.85-3.43-3.8-.21-6.34-2.57-7.93-5.83a4.25,4.25,0,0,1-.28-.68l-38.11-10.31A12.92,12.92,0,0,1,162.92,357.54Z"/><path class="cls-44" d="M135.87,339.81l-1.49-.41-7.24-.11L140.59,351A13.25,13.25,0,0,0,135.87,339.81Z"/><path class="cls-44" d="M162.92,357.54a12.92,12.92,0,0,0,9.21-7.92l-29.36-7.95a13.49,13.49,0,0,0,2.16,8.95,10.81,10.81,0,0,1,1.77,5.71l8.43,7.34.13-.2C157.29,360.83,159.28,358.4,162.92,357.54Z"/><path class="cls-44" d="M183.9,379c-.69-2.14-.47-3.32,1.45-4.53,3.33-2.11,3.16-4.45-.16-6.44-1.77-1.06-1.95-2.11-1.21-4.07,1.54-4.13-.33-7.17-4.75-7.84-5.69-.86-10.67.79-14.07,5.56-1.88,2.63-4.4,3.7-7.2,4.49l22.88,19.92C183.66,385,184.94,382.22,183.9,379Z"/><path class="cls-44" d="M310.33,348.32c-1.51,3.61-3.18,6.83-6.94,9-6.87,3.9-9.66,10.38-8.9,18.08.49,5,3.38,8.24,8.81,6.61,2.92-.88,4.35-.43,5.64,2.19,2.27,4.64,5.18,4.67,8.36.81,1.28-1.55,2.32-2.67,4.84-1.7l.56.19c2.15-7.41,4.3-15.51,6-23.26-.34-.32-.7-.64-1.09-.95-3.83-3-4.26-7.35-4.85-11.59-.43-3.08,1.23-4.15,3.87-2.49a44.9,44.9,0,0,1,4.28,2.94,67.15,67.15,0,0,0,.79-14h-.38a2.61,2.61,0,0,1-2.59-1.6c-.41-1.15.31-2.07,1.24-2.73l.79-.55a7.6,7.6,0,0,0-1.77-3l-10.48,6.08-9.86,12.1a2.06,2.06,0,0,1,1.35.4C311.31,345.75,310.84,347.09,310.33,348.32Z"/><path class="cls-44" d="M218.45,366.44c2.66.14,4.24,1.76,5.85,3.43,1.2,1.25.65,2-.91,2.1-2.43.11-4.7.14-6.95-1.49a8.36,8.36,0,0,0-12.27,2.71l.18,2c1.73,1.18,2.54,2.48.61,4.21-.53.47-.86,1.63-.52,1.77,3.48,1.43,3.44,5.4,5.7,7.64a3.26,3.26,0,0,0,2.88.47,9.08,9.08,0,0,0,7.78-6.42,8.85,8.85,0,0,1,3.65-4.54c.56-.42,1.18-.78,1.82-.32s.45,1.17.19,1.8a8.47,8.47,0,0,1-3.57,4.61c-3.54,2-5,5.34-4.58,9.31.25,2.57,1.74,4.24,4.53,3.4,1.5-.46,2.24-.22,2.9,1.12,1.17,2.39,2.67,2.41,4.31.42.65-.8,1.19-1.38,2.49-.88,3.79,1.46,5.84,0,6.07-4,.18-3.26-.6-6.22-3.28-8.34-2-1.56-2.19-3.79-2.49-6-.22-1.59.63-2.14,2-1.28,1.86,1.18,3.71,2.3,4.43,4.71,1.12,3.76,4,5.86,7.65,6.7,2.81.65,4.89-1,4.86-3.79,0-1.5.36-2.21,1.82-2.61,2.54-.69,2.9-2.21,1.17-4.14-.92-1-.83-1.73,0-2.84a3.64,3.64,0,0,0,.67-4.05L246,369.6a9.34,9.34,0,0,0-2.72,1.45c-1.87,1.43-3.86,1.52-6,1.44a1.35,1.35,0,0,1-1.33-.82,1.22,1.22,0,0,1,.64-1.41,11.9,11.9,0,0,1,4.07-2.11l-8.83-2.38c-.2.38-.41.76-.64,1.14a.83.83,0,0,1-1.42-.05,13.36,13.36,0,0,1-.65-1.83l-18.84-5.1a4.25,4.25,0,0,0,.28.68C212.11,363.87,214.65,366.23,218.45,366.44Z"/><path class="cls-3" d="M154.69,448.45l1.88,1a9.3,9.3,0,0,0,1.49,4.11c2.79,5.07,5.18,10.35,7.51,15.67,6.38,14.56,1.9,27.28-6.53,39.1a78.11,78.11,0,0,1-23.48,21.83A47.35,47.35,0,0,1,118,536.56c-.11,0-.19.17-.29.27l1,.79c-2.43,3.65-5.9,3.33-9.5,2.48-1.68-1.4-.11-2.29.58-3.24,7.45-10.3,7.28-18.7-.85-28.8-2-2.45-2.52-4.56-.17-6.93,2.74-2.76,4.33-6.21,5.86-9.7a11.79,11.79,0,0,0,.87-3.85c.17-1.25,0-2.9,1.76-3.15,1.45-.21,2.38.95,3.24,2,1.89,2.29.55,5.27,1.51,7.62,1.21,3,.58,4.68-2.18,6-.82.38-1.28,1.53-.48,2,3.58,2.25,1.84,4.53.3,6.93-.24.37,0,1,0,1.47-.31,1.95-1.26,3.75-1,5.84.58,5.18,5.14,8.62,9.32,6.36,11.76-6.37,22.78-13.68,28.78-26.4,4.67-9.9,4.46-20.13,2.54-30.61C158.25,459.78,156,454.26,154.69,448.45Z"/><path class="cls-2" d="M108.77,539.34a94.66,94.66,0,0,1-23.74-2c-8.21-.9-10.67-4.29-8.4-11.55,6-10.14,14.55-17.54,24.09-20.4a53.76,53.76,0,0,1-17.54-9.2c-3.78-2.82-7.28-5.85-8.16-10.86.73-4.47,4.41-6.16,7.71-8.22a54.56,54.56,0,0,1,15.45-4.62c2.32-.39,4.57-.43,6.59,1,4.42,1.55,6.47,6.21,10.65,8.08,1,3.26.34,6.6.48,9.91-1.44,3.88-2.84,7.87-6.13,10.61-2.54,2.11-1.84,3.24.27,5.28C119.16,516.2,118.43,531.73,108.77,539.34Z"/></svg>